<?xml version="1.0" standalone="no"?>
<!DOCTYPE svg PUBLIC "-//W3C//DTD SVG 20010904//EN"
 "http://www.w3.org/TR/2001/REC-SVG-20010904/DTD/svg10.dtd">
<svg version="1.0" xmlns="http://www.w3.org/2000/svg"
 width="500.000000pt" height="500.000000pt" viewBox="0 0 500.000000 500.000000"
 preserveAspectRatio="xMidYMid meet">

<g transform="translate(0.000000,500.000000) scale(0.100000,-0.100000)"
fill="#000000" stroke="none">
<path d="M2325 4994 c-310 -25 -624 -110 -900 -243 -462 -222 -820 -550 -1077
-984 -422 -713 -460 -1608 -99 -2348 368 -756 1053 -1260 1891 -1391 204 -32
514 -32 715 0 278 44 494 112 750 237 490 238 886 634 1134 1134 170 344 254
701 254 1081 0 205 -11 321 -49 515 -148 752 -649 1403 -1339 1741 -250 122
-472 192 -741 234 -125 20 -426 33 -539 24z m475 -119 c854 -106 1587 -670
1915 -1472 174 -428 220 -925 128 -1383 -56 -281 -189 -601 -349 -840 -237
-356 -556 -637 -929 -820 -187 -91 -295 -132 -462 -174 -212 -54 -309 -67
-529 -73 -444 -12 -785 64 -1178 265 -221 112 -405 248 -596 441 -351 354
-572 783 -661 1286 -27 152 -38 515 -20 662 54 437 211 831 472 1180 96 128
327 360 454 455 349 262 730 419 1145 472 148 19 458 19 610 1z"/>
<path d="M580 2500 l0 -1310 170 0 170 0 0 260 0 260 1580 0 1580 0 0 -260 0
-260 170 0 171 0 -3 853 -3 852 -23 70 c-76 226 -236 388 -461 464 l-76 25
-762 4 -763 3 -2 -613 -3 -613 -702 -3 -703 -2 0 790 0 790 -170 0 -170 0 0
-1310z"/>
<path d="M1503 3446 c-261 -63 -433 -316 -395 -579 41 -284 303 -487 580 -447
267 38 452 246 454 510 2 153 -46 266 -156 376 -132 132 -307 182 -483 140z"/>
</g>
</svg>
