<?xml version="1.0" standalone="no"?>
<!DOCTYPE svg PUBLIC "-//W3C//DTD SVG 20010904//EN"
 "http://www.w3.org/TR/2001/REC-SVG-20010904/DTD/svg10.dtd">
<svg version="1.0" xmlns="http://www.w3.org/2000/svg"
 width="500.000000pt" height="500.000000pt" viewBox="0 0 500.000000 500.000000"
 preserveAspectRatio="xMidYMid meet">

<g transform="translate(0.000000,500.000000) scale(0.100000,-0.100000)"
fill="#000000" stroke="none">
<path d="M3485 4031 c-16 -4 -49 -17 -72 -29 -23 -12 -51 -22 -62 -22 -48 0
-135 -44 -180 -90 -30 -30 -74 -60 -126 -84 -97 -45 -249 -146 -328 -216 l-58
-53 -57 12 c-108 22 -197 31 -312 31 -328 0 -608 -101 -924 -331 -51 -36 -103
-70 -116 -74 -13 -4 -44 -27 -69 -50 -25 -24 -62 -50 -82 -58 -53 -22 -107
-82 -124 -140 -19 -65 -19 -74 6 -150 l21 -64 -20 -64 -20 -64 -51 -7 c-98
-15 -179 -78 -223 -173 -19 -41 -23 -66 -22 -140 1 -141 42 -234 174 -393 112
-135 151 -164 592 -442 l253 -161 100 -141 c55 -79 112 -149 126 -157 62 -34
117 23 83 86 -9 18 -24 35 -33 38 -19 6 -131 203 -131 230 0 15 6 17 43 11 57
-9 275 -118 321 -162 32 -30 43 -35 69 -30 96 19 102 135 8 141 -41 2 -166 76
-231 136 l-55 50 65 -5 c36 -3 124 -15 195 -28 72 -12 147 -22 168 -22 47 0
80 31 80 73 0 43 -19 61 -64 61 -22 0 -110 18 -196 40 -87 21 -175 42 -195 46
-36 6 -54 24 -25 24 7 0 32 12 55 27 81 53 113 169 78 286 -7 25 -11 48 -8 51
3 4 21 6 40 6 54 0 223 37 313 69 l81 29 -5 -34 c-7 -39 25 -91 127 -213 137
-164 362 -316 571 -385 33 -10 59 -28 78 -51 30 -38 79 -67 142 -84 27 -7 74
-40 145 -101 94 -82 108 -91 135 -86 75 15 70 115 -6 116 -16 1 -38 17 -67 50
-24 28 -41 50 -37 50 3 0 35 -7 70 -16 45 -11 65 -21 68 -35 7 -28 51 -45 82
-31 27 13 43 57 29 81 -6 9 -51 36 -101 61 -51 25 -92 49 -92 53 -1 5 51 7
115 6 104 -3 118 -1 130 16 20 27 17 52 -7 76 -16 16 -28 19 -47 14 -34 -8
-39 -8 -139 -4 l-81 3 23 47 c13 25 35 53 49 63 47 30 24 106 -31 106 -22 0
-53 -29 -53 -49 0 -22 -40 -71 -83 -102 -29 -21 -51 -29 -82 -29 -50 0 -62 9
-133 101 -71 91 -237 248 -327 309 -41 28 -75 56 -75 63 1 7 11 47 24 90 22
74 26 81 82 124 32 25 74 59 91 76 l33 31 132 -130 c73 -72 150 -142 170 -158
47 -35 59 -72 52 -156 -10 -106 9 -150 66 -150 21 0 35 8 47 26 16 25 16 29 1
55 -14 24 -15 69 -2 69 3 0 21 -11 42 -25 20 -13 53 -28 72 -31 19 -4 57 -18
83 -32 48 -24 174 -51 251 -54 44 -2 66 19 66 62 0 42 -17 50 -110 51 -47 0
-101 6 -120 13 -33 12 -28 13 85 20 66 5 139 9 161 10 53 2 74 20 74 61 0 53
-9 55 -190 45 -212 -12 -224 -7 -55 25 50 9 100 23 113 31 26 17 30 65 6 88
-19 20 -58 21 -73 2 -7 -8 -46 -16 -109 -20 -53 -4 -124 -13 -157 -20 l-61
-13 -28 71 c-37 90 -107 216 -157 282 -26 34 -42 68 -49 103 -5 29 -13 57 -16
63 -16 25 174 174 319 251 173 91 337 229 371 312 9 21 16 52 16 70 0 29 6 37
45 59 48 29 85 85 85 131 0 68 -72 162 -165 214 -63 36 -160 67 -249 81 -87
14 -100 21 -159 85 -26 29 -66 62 -90 74 -48 23 -137 34 -182 22z"/>
</g>
</svg>
