<?xml version="1.0" standalone="no"?>
<!DOCTYPE svg PUBLIC "-//W3C//DTD SVG 20010904//EN"
 "http://www.w3.org/TR/2001/REC-SVG-20010904/DTD/svg10.dtd">
<svg version="1.0" xmlns="http://www.w3.org/2000/svg"
 width="500.000000pt" height="500.000000pt" viewBox="0 0 500.000000 500.000000"
 preserveAspectRatio="xMidYMid meet">

<g transform="translate(0.000000,500.000000) scale(0.100000,-0.100000)"
fill="#000000" stroke="none">
<path d="M3330 4170 c-98 -8 -181 -31 -245 -66 -79 -45 -306 -254 -347 -319
-40 -66 -160 -195 -223 -241 -85 -61 -499 -471 -578 -572 -286 -363 -361 -478
-466 -710 -51 -115 -110 -328 -109 -399 0 -63 13 -67 67 -26 l36 28 -23 -32
c-29 -42 -60 -63 -152 -105 -62 -29 -87 -47 -140 -108 -36 -40 -85 -86 -109
-102 -70 -49 -183 -169 -223 -238 -42 -71 -50 -117 -20 -105 9 4 23 9 31 13
11 4 12 -4 7 -41 -9 -57 7 -69 61 -43 39 18 63 9 63 -24 0 -10 6 -23 14 -29
12 -10 17 -8 26 8 15 30 28 26 51 -14 24 -41 54 -53 77 -32 9 9 34 18 54 22
50 9 56 -8 33 -85 -10 -32 -14 -63 -11 -69 12 -19 48 -12 124 21 72 32 74 32
104 15 20 -12 35 -14 47 -8 33 18 97 96 145 177 74 125 130 189 209 241 94 60
144 81 220 91 48 6 61 11 59 23 -3 19 68 32 118 22 25 -5 37 0 60 22 31 30 34
29 79 -14 12 -11 33 -12 101 -6 114 10 116 10 186 -5 55 -12 66 -12 120 6 l59
19 90 -80 c129 -116 215 -204 215 -222 0 -10 -6 -13 -16 -9 -38 14 -62 17 -68
7 -11 -18 -40 -13 -76 14 -19 14 -44 25 -56 25 -24 0 -84 -61 -84 -85 0 -21
11 -19 50 10 48 35 103 32 93 -5 -12 -46 78 -44 178 5 l51 24 18 -42 c28 -64
34 -112 20 -162 -12 -44 -12 -45 19 -74 17 -16 31 -36 31 -44 0 -22 18 -31 35
-17 20 17 19 49 -6 115 -12 31 -19 59 -16 61 12 13 56 -30 71 -70 29 -77 96
-117 76 -45 -12 43 -58 119 -90 149 -14 14 -47 57 -73 96 -26 39 -66 87 -90
107 -47 38 -280 273 -285 286 -2 5 32 31 75 57 115 71 150 102 189 166 19 31
52 71 74 88 21 17 63 67 93 113 30 45 78 114 106 152 99 133 222 426 240 571
5 44 15 102 21 129 8 33 11 146 9 325 -3 274 -2 275 23 342 26 70 93 182 137
232 31 34 53 43 150 62 110 20 138 32 162 66 20 28 20 31 5 46 -13 13 -43 18
-134 22 -114 5 -118 6 -174 42 -32 21 -89 64 -128 97 -39 32 -83 62 -97 66
-15 3 -54 19 -88 35 -70 33 -135 40 -255 30z"/>
</g>
</svg>
