<?xml version="1.0" encoding="UTF-8"?>
<svg version="1.1" xmlns="http://www.w3.org/2000/svg" width="500" height="500">
<path d="M0 0 C8.40471253 6.89416214 15.98392184 14.8205156 23.6640625 22.49609375 C24.95007352 23.77888479 26.23615677 25.06160342 27.52230835 26.34425354 C30.19485952 29.01086382 32.86538404 31.67948465 35.53466797 34.34936523 C38.96173252 37.77653239 42.39568521 41.1967101 45.83133888 44.61526394 C48.47860645 47.25145521 51.12135943 49.89213595 53.76282883 52.53413582 C55.028353 53.798478 56.29550347 55.06119448 57.56428909 56.32226372 C59.32577195 58.07401355 61.08088295 59.83190653 62.83447266 61.59155273 C63.36110504 62.11256561 63.88773743 62.63357849 64.43032837 63.17037964 C68 66.77166849 68 66.77166849 68 69 C69.32 69.66 70.64 70.32 72 71 C72 71.66 72 72.32 72 73 C73.32 73.66 74.64 74.32 76 75 C76 75.66 76 76.32 76 77 C76.8353125 77.309375 76.8353125 77.309375 77.6875 77.625 C80.24663995 79.14665078 81.68900849 80.97587189 83.515625 83.29296875 C85.20420928 85.23484068 87.0376277 86.83640995 89 88.5 C92.41228188 91.40203413 95.13672145 94.54938226 98 98 C99.12798111 98.99967995 100.27506042 99.97810664 101.4375 100.9375 C104.52275199 103.48850922 106.99355451 106.26672258 109.53515625 109.34765625 C111.14903343 111.25141992 111.14903343 111.25141992 114 113.5 C116.33618185 115.44681821 118.03430755 117.13044709 119.9375 119.4375 C121.96927853 121.89367091 124.04034088 123.97280842 126.5 126 C129.54201829 128.50833087 131.96317414 131.24198462 134.46484375 134.27734375 C136.55808652 136.62624976 138.92974414 138.54026918 141.3515625 140.5390625 C143 142 143 142 145.4375 144.9375 C147.54502526 147.4562497 149.51989739 149.39075385 152 151.5 C155.41228188 154.40203413 158.13672145 157.54938226 161 161 C162.12798111 161.99967995 163.27506042 162.97810664 164.4375 163.9375 C166.89367091 165.96927853 168.97280842 168.04034088 171 170.5 C173.50833087 173.54201829 176.24198462 175.96317414 179.27734375 178.46484375 C181.62491853 180.55690019 183.53804548 182.92675539 185.53515625 185.34765625 C187.14903343 187.25141992 187.14903343 187.25141992 190 189.5 C192.33618185 191.44681821 194.03430755 193.13044709 195.9375 195.4375 C197.96927853 197.89367091 200.04034088 199.97280842 202.5 202 C205.56460719 204.53133854 208.06581468 207.28077308 210.59375 210.33984375 C211.86130223 211.83625957 213.23828645 213.23828645 214.625 214.625 C219.42436171 219.42436171 222.12301668 222.92365471 222.25 229.8125 C222.15286849 237.24845641 218.93753209 241.6031626 214 247 C212.97315454 247.89234681 211.93138832 248.76783131 210.875 249.625 C208.41890724 251.6539462 206.86693926 253.47963199 205 256 C204.34 256 203.68 256 203 256 C202.34 257.32 201.68 258.64 201 260 C200.34 260 199.68 260 199 260 C198.34 261.32 197.68 262.64 197 264 C196.34 264 195.68 264 195 264 C194.6596875 264.8353125 194.6596875 264.8353125 194.3125 265.6875 C192.62449964 268.66159588 190.53323483 270.72008865 188 273 C187.34 273 186.68 273 186 273 C185.34 274.32 184.68 275.64 184 277 C183.34 277 182.68 277 182 277 C181.34 278.32 180.68 279.64 180 281 C179.34 281 178.68 281 178 281 C177.34 282.32 176.68 283.64 176 285 C175.34 285 174.68 285 174 285 C173.6596875 285.8353125 173.6596875 285.8353125 173.3125 286.6875 C171.62449964 289.66159588 169.53323483 291.72008865 167 294 C166.34 294 165.68 294 165 294 C164.34 295.32 163.68 296.64 163 298 C162.34 298 161.68 298 161 298 C160.34 299.32 159.68 300.64 159 302 C158.34 302 157.68 302 157 302 C156.34 303.32 155.68 304.64 155 306 C154.34 306 153.68 306 153 306 C152.731875 306.639375 152.46375 307.27875 152.1875 307.9375 C151 310 151 310 148 311 C146.79117904 313.00016466 146.79117904 313.00016466 146 315 C145.34 315 144.68 315 144 315 C143.62875 315.86625 143.62875 315.86625 143.25 316.75 C141.81700012 319.32939979 140.21575324 321.06121592 138 323 C137.34 323 136.68 323 136 323 C135.6596875 323.8353125 135.6596875 323.8353125 135.3125 324.6875 C133.62449964 327.66159588 131.53323483 329.72008865 129 332 C128.34 332 127.68 332 127 332 C126.62875 332.86625 126.62875 332.86625 126.25 333.75 C124.81700012 336.32939979 123.21575324 338.06121592 121 340 C120.34 340 119.68 340 119 340 C118.34 341.32 117.68 342.64 117 344 C116.34 344 115.68 344 115 344 C114.6596875 344.8353125 114.6596875 344.8353125 114.3125 345.6875 C112.62449964 348.66159588 110.53323483 350.72008865 108 353 C107.34 353 106.68 353 106 353 C105.75307246 353.57155067 105.50614492 354.14310135 105.25173473 354.73197174 C103.79538015 357.37075236 102.10111076 359.15363055 99.97224426 361.28845215 C98.70855011 362.56277351 98.70855011 362.56277351 97.41932678 363.86283875 C96.49309006 364.78659805 95.56685333 365.71035736 94.61254883 366.66210938 C93.62814222 367.65086452 92.644154 368.64003636 91.66055298 369.6295929 C88.98944579 372.31408912 86.31196912 374.9921453 83.63289475 377.66868782 C81.39468657 379.90582579 79.15946332 382.14593444 76.92418689 384.38600111 C71.64801513 389.67326867 66.36653175 394.95518904 61.08178711 400.23388672 C55.63699467 405.67264448 50.20143076 411.12050131 44.77032262 416.57292128 C40.10217324 421.25871125 35.42821047 425.93864673 30.74960726 430.61399889 C27.957619 433.40417738 25.16788284 436.19651573 22.38376808 438.99455261 C19.76309063 441.627843 17.13520141 444.25372072 14.5017128 446.87419701 C13.08224419 448.29018744 11.6701445 449.71355301 10.25831604 451.13716125 C4.25484182 457.09147353 -1.41726674 462.57055898 -10.25 463.25 C-22.18171832 462.45455211 -29.96203285 452.187112 -37.90753174 444.23291016 C-38.76909087 443.37432215 -39.63065 442.51573414 -40.51831698 441.63112831 C-42.88865435 439.26792053 -45.25677162 436.90252899 -47.62391663 434.53612614 C-50.18517494 431.97673138 -52.74927429 429.42018532 -55.31295776 426.86322021 C-60.90624404 421.28345986 -66.4958015 415.6999743 -72.08453465 410.11565399 C-75.57631941 406.62663896 -79.06883784 403.13835895 -82.56148529 399.65020752 C-92.23996828 389.98390507 -101.9175128 380.31666524 -111.59160233 370.64596558 C-112.20951347 370.02827399 -112.82742462 369.41058241 -113.46406035 368.7741729 C-114.08339279 368.15505874 -114.70272523 367.53594458 -115.34082532 366.89806938 C-116.59570491 365.64363325 -117.85058606 364.38919866 -119.10546875 363.13476562 C-120.03915252 362.201414 -120.03915252 362.201414 -120.99169859 361.24920678 C-131.09020519 351.15465294 -141.19545441 341.0668777 -151.30360857 330.98198533 C-161.69206896 320.61723856 -172.07489454 310.24687506 -182.45208812 299.8708477 C-188.27454296 294.04930912 -194.09938656 288.23020631 -199.93045807 282.41729736 C-204.89188934 277.47126653 -209.84815008 272.52012675 -214.79775622 267.5622611 C-217.32206764 265.03404428 -219.84873155 262.50830399 -222.3820076 259.98906708 C-225.12964061 257.25652244 -227.86553307 254.51241167 -230.60040283 251.76708984 C-231.40039365 250.97515543 -232.20038447 250.18322102 -233.02461743 249.36728859 C-238.60119785 243.74067875 -243.55711205 238.47521824 -243.625 230.125 C-243.65851563 229.17882812 -243.69203125 228.23265625 -243.7265625 227.2578125 C-241.77617531 218.51252798 -234.33843183 211.90833725 -228.18785095 205.81362915 C-227.31237203 204.93417582 -226.4368931 204.05472249 -225.53488451 203.14861906 C-223.1235078 200.72932766 -220.70565041 198.31687639 -218.2847017 195.90718675 C-215.66780984 193.29918371 -213.05962583 190.68249607 -210.45030212 188.06692505 C-205.34623218 182.95339365 -200.23419234 177.84790305 -195.11930674 172.7451926 C-189.16082631 166.80036554 -183.21001794 160.84788312 -177.2594176 154.89517014 C-166.64299413 144.2755609 -156.0191737 133.66338224 -145.39135742 123.05517578 C-135.0808986 112.76373618 -124.77643736 102.46633836 -114.47827148 92.16259766 C-103.25594505 80.93421405 -92.03051166 69.70895468 -80.79947287 58.48928487 C-79.60221612 57.29323539 -78.40496001 56.09718527 -77.20770454 54.90113449 C-76.61865843 54.31269192 -76.02961232 53.72424935 -75.42271633 53.11797518 C-71.27253012 48.97166773 -67.12448301 44.82322762 -62.9771862 40.6740303 C-57.92547725 35.62019984 -52.87011437 30.57005776 -47.81009238 25.52455004 C-45.22876296 22.95046545 -42.64904341 20.3748212 -40.07361603 17.79483032 C-37.28287618 14.99926576 -34.48443951 12.21148938 -31.68516541 9.42446899 C-30.46415639 8.19779099 -30.46415639 8.19779099 -29.21848053 6.94633162 C-28.46677882 6.20046211 -27.71507712 5.4545926 -26.94059658 4.68612099 C-25.97320133 3.7200259 -25.97320133 3.7200259 -24.98626274 2.73441374 C-17.69098221 -3.63585871 -8.52008178 -5.39346562 0 0 Z M-17.68462563 9.98204517 C-18.3848274 10.62133508 -19.08502917 11.26062499 -19.80644917 11.91928732 C-23.56768583 15.48704272 -27.25885937 19.11798993 -30.92098999 22.78727722 C-31.78396025 23.64798193 -32.64693052 24.50868663 -33.53605139 25.3954733 C-35.91025347 27.76447091 -38.28222711 30.13565881 -40.65323472 32.507851 C-43.21852268 35.07334419 -45.78667608 37.63596642 -48.35443115 40.19898987 C-53.37477982 45.21106033 -58.39237408 50.22587932 -63.40886466 55.241811 C-67.48498558 59.31745583 -71.56189716 63.39230808 -75.63936234 67.46660805 C-87.20513337 79.02358371 -98.76881702 90.58264213 -110.32981567 102.14439186 C-111.26314627 103.07778239 -111.26314627 103.07778239 -112.21533203 104.0300293 C-113.14980273 104.96456132 -113.14980273 104.96456132 -114.10315163 105.91797278 C-124.21732918 116.03255748 -134.33649589 126.14213446 -144.45791416 136.24947306 C-154.85580587 146.63301456 -165.24997838 157.02026621 -175.64026511 167.41141778 C-181.47179101 173.2432759 -187.30485264 179.07357879 -193.14191818 184.89989281 C-198.10666437 189.8555523 -203.06795718 194.8146368 -208.02475898 199.77824303 C-210.55412663 202.31088388 -213.08509381 204.84187071 -215.62041855 207.36854935 C-218.36600128 210.10486466 -221.10383181 212.84885188 -223.84091187 215.59367371 C-225.04963662 216.79468311 -225.04963662 216.79468311 -226.28278005 218.01995534 C-227.37862242 219.1226959 -227.37862242 219.1226959 -228.49660301 220.24771404 C-229.12943714 220.88033081 -229.76227128 221.51294757 -230.4142822 222.16473454 C-232.99844473 225.15557203 -233.96391805 227.21638688 -234.14655972 231.18292427 C-232.44068947 236.8620318 -228.8283181 239.98337257 -224.65504456 244.07321167 C-223.32668332 245.41032108 -223.32668332 245.41032108 -221.97148651 246.77444279 C-219.51680758 249.24446448 -217.04382436 251.695412 -214.5674237 254.14362907 C-211.89872227 256.78846679 -209.24738528 259.4506123 -206.59387207 262.110672 C-201.39517291 267.31678184 -196.180751 272.50686555 -190.96104211 277.69190101 C-184.88639684 283.72756567 -178.82831092 289.77973733 -172.77108645 295.83287658 C-161.96663703 306.6290725 -151.14849303 317.41143853 -140.32202148 328.18554688 C-129.80915312 338.64761422 -119.30401712 349.11735546 -108.80834961 359.59667969 C-108.1615651 360.24245326 -107.51478059 360.88822683 -106.84839655 361.5535693 C-104.24887136 364.14907484 -101.64937474 366.744609 -99.04992214 369.34018724 C-87.85044836 380.52264618 -76.64526756 391.69938607 -65.43876728 402.87480289 C-63.62193474 404.68663984 -61.80519803 406.49857286 -59.98846936 408.31051397 C-53.09472396 415.18570544 -46.19800297 422.05789059 -39.29703522 428.92583275 C-37.20205372 431.01095832 -35.10822258 433.09722835 -33.0154171 435.18453789 C-30.17034156 438.02202838 -27.32138383 440.85558734 -24.47193909 443.68869019 C-23.63411111 444.52533829 -22.79628313 445.36198639 -21.93306643 446.22398746 C-21.17380419 446.97755846 -20.41454195 447.73112945 -19.63227177 448.50753593 C-18.97437879 449.1625562 -18.31648581 449.81757646 -17.63865668 450.49244583 C-15.32163838 452.62408856 -14.0393186 452.99370902 -10.875 453.5 C-6.8016756 452.97440976 -6.17593126 452.63535616 -3.31537437 450.01795483 C-2.6151726 449.37866492 -1.91497083 448.73937501 -1.19355083 448.08071268 C2.56768583 444.51295728 6.25885937 440.88201007 9.92098999 437.21272278 C10.78396025 436.35201807 11.64693052 435.49131337 12.53605139 434.6045267 C14.91025347 432.23552909 17.28222711 429.86434119 19.65323472 427.492149 C22.21852268 424.92665581 24.78667608 422.36403358 27.35443115 419.80101013 C32.37477982 414.78893967 37.39237408 409.77412068 42.40886466 404.758189 C46.48498558 400.68254417 50.56189716 396.60769192 54.63936234 392.53339195 C66.20513337 380.97641629 77.76881702 369.41735787 89.32981567 357.85560814 C89.95203607 357.23334779 90.57425647 356.61108743 91.21533203 355.9699707 C91.8383125 355.34694935 92.46129297 354.723928 93.10315163 354.08202722 C103.21732918 343.96744252 113.33649589 333.85786554 123.45791416 323.75052694 C133.85580587 313.36698544 144.24997838 302.97973379 154.64026511 292.58858222 C160.47179101 286.7567241 166.30485264 280.92642121 172.14191818 275.10010719 C177.10666437 270.1444477 182.06795718 265.1853632 187.02475898 260.22175697 C189.55412663 257.68911612 192.08509381 255.15812929 194.62041855 252.63145065 C197.36600128 249.89513534 200.10383181 247.15114812 202.84091187 244.40632629 C204.04963662 243.20531689 204.04963662 243.20531689 205.28278005 241.98004466 C206.37862242 240.8773041 206.37862242 240.8773041 207.49660301 239.75228596 C208.12943714 239.11966919 208.76227128 238.48705243 209.4142822 237.83526546 C211.83819973 235.02989106 212.97779455 232.97703983 213.0625 229.25 C210.44589274 221.24626015 202.04766725 214.90428046 196.19926453 209.07228088 C195.33714869 208.20860506 194.47503285 207.34492923 193.58679229 206.4550814 C191.21393545 204.07894522 188.83888183 201.70504583 186.4628309 199.33210623 C183.89326526 196.76481445 181.32659277 194.19463287 178.75953674 191.62483215 C173.7400311 186.60089216 168.71784084 181.57964428 163.69466557 176.55937362 C159.61406355 172.48103331 155.53444267 168.40171395 151.45551491 164.32169914 C150.87421492 163.74024592 150.29291494 163.15879271 149.6939998 162.55971969 C148.51304977 161.37844993 147.33210198 160.19717793 146.1511564 159.0159037 C135.09335203 147.95525177 124.03249135 136.8976603 112.97057418 125.84112184 C103.47400376 116.34902589 93.98006815 106.85430124 84.48803711 97.35766602 C73.46076786 86.32505041 62.43188506 75.29405198 51.40040523 64.2656464 C50.22540348 63.0909632 49.05040381 61.91627791 47.87540627 60.7415905 C47.29728945 60.16362796 46.71917263 59.58566541 46.12353712 58.99018886 C42.0443166 54.91183278 37.96625968 50.8323154 33.88864708 46.75235176 C28.92596072 41.78686685 23.96150889 36.82315532 18.99475422 31.86173964 C16.45958806 29.32920864 13.92524112 26.79587163 11.3930397 24.26037598 C8.65333036 21.51715618 5.9097867 18.77779253 3.16581726 16.03883362 C2.35931864 15.23010428 1.55282002 14.42137493 0.72188205 13.58813864 C-0.37488537 12.49528285 -0.37488537 12.49528285 -1.4938097 11.38034916 C-2.12718591 10.74713531 -2.76056211 10.11392145 -3.41313154 9.4615193 C-5.69847078 7.3567025 -7.00141626 6.9997734 -10.125 6.5 C-14.1983244 7.02559024 -14.82406874 7.36464384 -17.68462563 9.98204517 Z " fill="#2E2820" transform="translate(262,20)"/>
<path d="M0 0 C11.03960146 9.14240775 20.94057896 19.77107564 31.07352006 29.88415921 C33.630017 32.43462036 36.18928383 34.98229999 38.74809265 37.53044128 C44.90014429 43.658174 51.04743267 49.79067372 57.19380936 55.92409793 C58.9320841 57.65864984 60.67048332 59.39307689 62.40892529 61.12746119 C73.23137271 71.92469394 84.05222649 82.7235211 94.8683157 93.52712345 C97.36295571 96.01883447 99.85761212 98.51052908 102.35229492 101.00219727 C102.97222645 101.62138275 103.59215799 102.24056823 104.23087532 102.87851691 C114.29335318 112.92831669 124.36608398 122.96777566 134.44299781 133.00309832 C144.81157832 143.32923604 155.1706881 153.66479939 165.52068096 164.00956815 C171.32316748 169.80864656 177.12972455 175.60351614 182.94698906 181.38777351 C187.89483204 186.30758475 192.83405249 191.23585176 197.76230764 196.17528755 C200.27415148 198.69230695 202.78981106 201.20516139 205.31663513 203.70714951 C208.0604684 206.42423784 210.78451905 209.16063644 213.50706482 211.89906311 C214.30141432 212.67953052 215.09576382 213.45999793 215.91418451 214.26411587 C222.59391546 221.04004735 227.70992846 228.6699769 228.18359375 238.43359375 C227.6575483 245.78703765 224.87065597 251.40041821 219.9023962 256.76767254 C218.6981109 258.07010719 218.6981109 258.07010719 217.46949661 259.39885366 C213.67796755 263.39251047 209.82927461 267.32217862 205.93666077 271.21723938 C205.0703135 272.0879689 204.20396623 272.95869842 203.31136602 273.85581368 C200.93564565 276.24248181 198.55778121 278.62697366 196.17888606 281.0104748 C193.60247729 283.59290129 191.02886174 286.17810938 188.45478821 288.76286316 C182.25801869 294.98399783 176.05644096 301.20032807 169.85395184 307.41575959 C168.10032053 309.17311132 166.3468154 310.93058886 164.59335399 312.68811011 C153.68317218 323.62351202 142.77139612 334.55732041 131.85483646 345.48635578 C129.33460112 348.00952027 126.8143821 350.53270107 124.29418945 353.0559082 C123.66789174 353.68295197 123.04159403 354.30999573 122.39631759 354.95604082 C112.23645662 365.12857328 102.08693314 375.31135618 91.94156189 385.4983376 C81.50700638 395.97533608 71.06302501 406.44286403 60.60983843 416.90127438 C54.74813267 422.76638903 48.89063884 428.63557883 43.04374886 434.51546669 C38.06899305 439.51825499 33.08577974 444.51242087 28.09139926 449.49562082 C25.54604052 452.03580348 23.00484692 454.57980598 20.47451782 457.1349678 C17.72666789 459.90955883 14.95950952 462.66437425 12.19032288 465.41767883 C11.40070933 466.22117447 10.61109578 467.0246701 9.79755455 467.85251409 C3.93152386 473.63616961 -2.24895942 478.09045394 -10.46875 479.6640625 C-11.96921875 479.64472656 -11.96921875 479.64472656 -13.5 479.625 C-14.5003125 479.63789063 -15.500625 479.65078125 -16.53125 479.6640625 C-26.20962034 477.81122133 -32.79838325 471.92644596 -39.52767944 465.10050964 C-40.43178295 464.20350053 -41.33588645 463.30649141 -42.26738703 462.3823002 C-44.75669335 459.91180141 -47.2303202 457.42612093 -49.70147777 454.93748653 C-52.37678645 452.24874539 -55.06653455 449.57451371 -57.75442505 446.89836121 C-63.00944397 441.66167836 -68.25097927 436.41169868 -73.48783724 431.15686079 C-77.74498665 426.88566252 -82.0072027 422.61958145 -86.27305984 418.35708046 C-86.88112953 417.74948822 -87.48919921 417.14189598 -88.11569525 416.51589185 C-89.35114254 415.28147092 -90.58660433 414.0470645 -91.82208045 412.81267241 C-102.73492596 401.90838553 -113.63512688 390.99154402 -124.52880859 380.06811523 C-135.09269258 369.47538527 -145.66740037 358.89360867 -156.25341797 348.32299805 C-167.79115803 336.8020272 -179.32249307 325.27471277 -190.84309924 313.73660642 C-192.07200625 312.50585508 -193.30091807 311.27510853 -194.52983475 310.04436684 C-195.13442628 309.43886321 -195.73901781 308.83335959 -196.3619303 308.20950737 C-200.61765042 303.94818717 -204.87780398 299.69133047 -209.13962936 295.43611717 C-214.33383741 290.24964841 -219.52072183 285.05598343 -224.69848053 279.85309096 C-227.33907861 277.20001304 -229.98272756 274.5501842 -232.63516998 271.90894318 C-235.51248164 269.04355346 -238.37398844 266.16287808 -241.23422241 263.28044128 C-242.49052651 262.03649834 -242.49052651 262.03649834 -243.77221048 260.76742524 C-250.58731547 253.8543033 -254.35370946 247.59216355 -255.3125 237.8125 C-254.13331605 223.42645582 -242.53743364 214.38649107 -232.91647339 204.77603149 C-232.04800943 203.90459641 -231.17954546 203.03316132 -230.28476441 202.13531911 C-227.90326183 199.74670773 -225.5195953 197.36029637 -223.13490891 194.97486615 C-220.55237511 192.3904637 -217.9726885 189.80322159 -215.39257812 187.21640015 C-209.76747187 181.57779043 -204.13866083 175.9428891 -198.50900793 170.30881929 C-194.99083684 166.78787563 -191.47339955 163.26619952 -187.95608902 159.74439621 C-178.20563511 149.98176659 -168.45424731 140.22007193 -158.69939995 130.46183205 C-158.07684338 129.83905592 -157.45428682 129.21627979 -156.81286491 128.57463165 C-155.87691312 127.63835245 -155.87691312 127.63835245 -154.92205322 126.68315852 C-153.6578321 125.41849395 -152.39361254 124.15382783 -151.12939453 122.88916016 C-150.50230989 122.26185408 -149.87522524 121.63454801 -149.22913803 120.98823266 C-139.05064757 110.80578745 -128.87893866 100.61659632 -118.7101035 90.4245096 C-108.25489188 79.94558545 -97.79406448 69.472295 -87.32757294 59.00463712 C-81.45687973 53.1330278 -75.58862058 47.25903104 -69.72655869 41.37880325 C-64.74031795 36.37716383 -59.74897021 31.38069249 -54.75089513 26.3908778 C-52.20241187 23.84630005 -49.65640508 21.29936889 -47.1169014 18.74582672 C-44.36256788 15.97640645 -41.59666952 13.21872408 -38.82955933 10.46206665 C-38.03120726 9.65565817 -37.23285518 8.8492497 -36.41031063 8.0184046 C-26.60559529 -1.69980061 -13.13769693 -7.87267304 0 0 Z M-40.05265808 16.79196167 C-40.92984586 17.6653239 -41.80703363 18.53868613 -42.71080285 19.43851388 C-45.12664754 21.84586659 -47.53797954 24.25757841 -49.94742954 26.67132115 C-52.55392348 29.28029216 -55.16616517 31.88349786 -57.77763367 34.48748779 C-62.8853374 39.58247078 -67.98757924 44.6828893 -73.08775374 49.78540812 C-77.23399858 53.93343881 -81.38201137 58.07969358 -85.5312748 62.22470474 C-86.12267457 62.81550933 -86.71407434 63.40631391 -87.32339532 64.01502166 C-88.52495122 65.21536577 -89.7265083 66.41570871 -90.92806653 67.6160505 C-102.18411208 78.86123115 -113.43364408 90.11291034 -124.68120632 101.36657514 C-134.96527079 111.65581087 -145.25752972 121.93680483 -155.5536774 132.213948 C-166.13545448 142.77634342 -176.71165572 153.3442923 -187.2818678 163.91826165 C-193.21249324 169.85079823 -199.14529338 175.78111981 -205.08394432 181.70562363 C-210.13804265 186.74780322 -215.18684614 191.79521253 -220.22893401 196.84940349 C-222.79996805 199.42632198 -225.37332703 202.00079643 -227.95330048 204.56876755 C-230.75314955 207.35574262 -233.5412268 210.15430949 -236.32829285 212.95407104 C-237.5472555 214.16197227 -237.5472555 214.16197227 -238.79084367 215.39427555 C-245.17130395 221.83600566 -251.0736403 228.28536296 -251.25 237.75 C-251.04581912 250.55770999 -240.58709352 258.562479 -232.11901855 267.02142334 C-231.24817989 267.89523313 -230.37734122 268.76904292 -229.48011351 269.66933179 C-227.08270166 272.07387437 -224.68310469 274.47619601 -222.28249717 276.8775456 C-219.68629214 279.4756139 -217.09293583 282.07652337 -214.49916077 284.67701721 C-208.83882506 290.35088004 -203.17476302 296.02101297 -197.50986671 301.69032192 C-193.97059868 305.23235951 -190.43206574 308.77513085 -186.8936615 312.31803131 C-177.08838973 322.13548383 -167.28218043 331.95199776 -157.47251129 341.76505661 C-156.53261967 342.70527758 -156.53261967 342.70527758 -155.57374033 343.66449292 C-154.94570133 344.2927502 -154.31766232 344.92100749 -153.67059183 345.56830287 C-152.39806879 346.84126937 -151.12554729 348.11423743 -149.85302734 349.38720703 C-149.22182108 350.01863472 -148.59061482 350.65006242 -147.94028109 351.30062428 C-137.70023051 361.54462759 -127.46695821 371.79537371 -117.23656911 382.04902479 C-106.7226604 392.5866465 -96.20313544 403.11863413 -85.67794657 413.64498925 C-79.77257111 419.551281 -73.8696316 425.45996234 -67.97288513 431.3748703 C-62.9554883 436.40766675 -57.93298315 441.43529418 -52.90375173 446.4562656 C-50.33908029 449.01703133 -47.77688556 451.58015149 -45.22119331 454.14988136 C-42.44923635 456.93692439 -39.6657148 459.71223085 -36.88098145 462.48651123 C-36.07737419 463.29817489 -35.27376693 464.10983856 -34.44580793 464.94609809 C-28.25571094 471.08192066 -22.66310564 475.56437649 -13.75 476.25 C-0.25867266 475.35057818 8.17003936 463.97817317 17.17927551 454.97462463 C18.04592148 454.11236092 18.91256745 453.25009721 19.80547541 452.36170429 C22.18074161 449.9973851 24.55383209 447.63092254 26.92593181 445.26342905 C29.49608846 442.69929051 32.06902642 440.13794497 34.64151001 437.57614136 C40.83298134 431.40903422 47.01964911 425.23711974 53.2054179 419.06429353 C54.95440061 417.31903129 56.7035091 415.57389521 58.45266128 413.82880282 C69.33616229 402.97052187 80.21806972 392.11064659 91.09520435 381.24598789 C93.60633729 378.7377841 96.11748653 376.22959664 98.62866211 373.72143555 C99.25271526 373.09812845 99.87676841 372.47482135 100.51973226 371.83262616 C110.64376589 361.72126404 120.77804978 351.62023967 130.9165322 341.52336729 C141.34381038 331.13853259 151.76161746 320.74427164 162.17030734 310.34080547 C168.00747641 304.50704521 173.84871995 298.67749685 179.70066261 292.85855293 C184.67966279 287.90758594 189.65003931 282.948161 194.60945103 277.97756905 C197.1374825 275.44436169 199.66933218 272.91531949 202.21234322 270.39714241 C204.97379833 267.66243028 207.71547454 264.9084086 210.4556427 262.15235901 C211.25524739 261.36663641 212.05485207 260.58091381 212.8786872 259.77138144 C219.02964873 253.53240022 224.01471519 246.87463907 224.5625 237.875 C224.02610668 228.36891846 218.00395937 221.96326134 211.54332232 215.53576672 C209.7377332 213.73901718 207.93888819 211.93564513 206.14028358 210.13190365 C205.40661556 209.39638553 204.67294753 208.6608674 203.91704714 207.90306085 C203.12317799 207.10714535 202.32930885 206.31122984 201.51138306 205.49119568 C199.73834797 203.7137598 197.96530152 201.93633526 196.19224548 200.15892029 C195.72425786 199.68977999 195.25627024 199.22063969 194.77410118 198.73728302 C173.2107605 177.12095554 151.63968575 155.51236263 130.06277577 133.90957978 C126.94608994 130.78914246 123.82946994 127.6686394 120.71289062 124.5480957 C120.09251582 123.92693397 119.47214101 123.30577223 118.83296697 122.66578741 C108.77514719 112.59489718 98.72263889 102.51872104 88.67206176 92.44060337 C78.34798582 82.08847432 68.0182219 71.74204668 57.68315542 61.40088993 C51.31113103 55.02475149 44.94358034 48.64421205 38.58170067 42.25795127 C34.22208442 37.88247894 29.85695651 33.51255586 25.48745729 29.14695316 C22.96733665 26.62875373 20.44971172 24.10818566 17.93860817 21.58099174 C15.21471528 18.83977273 12.47925026 16.11029102 9.74258423 13.38182068 C8.55847267 12.18460133 8.55847267 12.18460133 7.35043967 10.96319574 C1.3645293 5.02567557 -4.06072758 0.54651546 -12.7421875 -0.02734375 C-24.6663626 0.11706668 -32.13798253 8.84017199 -40.05265808 16.79196167 Z " fill="#3E3A37" transform="translate(265,12)"/>
<path d="M0 0 C3.34672477 -0.04897646 6.68863681 -0.05527929 10.03515625 -0.01171875 C13.78284345 0.02958452 17.50212197 -0.10468093 21.24609375 -0.26953125 C37.37520568 -0.69222192 37.37520568 -0.69222192 41.90478516 2.22802734 C44.94935497 5.36240747 46.66644715 9.03637607 48.23535156 13.07373047 C48.99593908 14.9897699 49.87325136 16.77582576 50.8359375 18.59765625 C52.29689513 21.37083149 53.67394672 24.16068592 55 27 C54.34 27.66 53.68 28.32 53 29 C52.77104557 31.80132308 52.77104557 31.80132308 52.91015625 35.07421875 C52.94012695 36.91209961 52.94012695 36.91209961 52.97070312 38.78710938 C53.03144387 41.36794493 53.09648206 43.94868325 53.16601562 46.52929688 C53.34982615 58.64177696 53.34982615 58.64177696 50 64 C46.59144015 67.38632462 43.18556835 67.51103898 38.6015625 67.6171875 C37.88898285 67.64225372 37.1764032 67.66731995 36.44223022 67.69314575 C34.93793838 67.74200978 33.43339457 67.78359133 31.92871094 67.81835938 C29.63864734 67.87466446 27.35139189 67.96309243 25.0625 68.0546875 C23.59641079 68.09830095 22.13026403 68.14002915 20.6640625 68.1796875 C19.64658432 68.22160721 19.64658432 68.22160721 18.60855103 68.26437378 C13.981426 68.33988841 10.92367282 67.43112135 7 65 C5.171875 62.6953125 5.171875 62.6953125 3.75 60.125 C3.27046875 59.28195312 2.7909375 58.43890625 2.296875 57.5703125 C1.86890625 56.72210938 1.4409375 55.87390625 1 55 C0.64800537 54.33145996 0.29601074 53.66291992 -0.06665039 52.97412109 C-1.43895577 48.60126625 -1.26519185 44.39984896 -1.23046875 39.84375 C-1.23001053 38.86386108 -1.22955231 37.88397217 -1.2290802 36.87438965 C-1.22606492 34.80670966 -1.21820033 32.73903179 -1.20581055 30.67138672 C-1.18756531 27.51131109 -1.18530095 24.35152905 -1.18554688 21.19140625 C-1.18063071 19.17968497 -1.17480197 17.16796568 -1.16796875 15.15625 C-1.16685593 14.21342163 -1.1657431 13.27059326 -1.16459656 12.29919434 C-1.13414892 8.07833884 -1.07931922 4.11271762 0 0 Z M13.3125 3.5 C9.909375 3.665 6.50625 3.83 3 4 C3 12.25 3 20.5 3 29 C6.49208181 30.16402727 9.39147772 30.21118508 13.07421875 30.31640625 C13.7580513 30.33718735 14.44188385 30.35796844 15.1464386 30.37937927 C17.3266921 30.44466154 19.50706405 30.50366017 21.6875 30.5625 C23.16732986 30.60570553 24.64714783 30.64932047 26.12695312 30.69335938 C29.75117622 30.80032083 33.37553189 30.90164823 37 31 C37.66 32.65 38.32 34.3 39 36 C43.0100934 36.17864631 43.0100934 36.17864631 47 36 C49.65822762 33.34177238 49.35980571 31.8939746 49.4375 28.1875 C49.41054841 22.94721612 49.41054841 22.94721612 46.625 18.75 C44.24845946 16.81509993 44.24845946 16.81509993 42 17 C41.8453125 15.1746875 41.8453125 15.1746875 41.6875 13.3125 C41.22500324 9.58609755 40.30394352 7.04120544 38 4 C31.47566783 0.73783392 20.48788617 3.14269191 13.3125 3.5 Z M1 35 C1.33 36.65 1.66 38.3 2 40 C3.8871875 40.061875 3.8871875 40.061875 5.8125 40.125 C6.52019531 40.14820313 7.22789062 40.17140625 7.95703125 40.1953125 C10.31359719 40.13254462 10.31359719 40.13254462 13 38 C12.67 37.01 12.34 36.02 12 35 C8.37 35 4.74 35 1 35 Z " fill="#070600" transform="translate(244,234)"/>
<path d="M0 0 C4.70987581 -0.02512449 9.41971079 -0.04305588 14.12963867 -0.05493164 C15.72469769 -0.05989369 17.31975232 -0.06666548 18.91479492 -0.07543945 C29.32760111 -0.13119306 39.61877268 0.14620782 50 1 C52.03471354 21.86114584 52.03471354 21.86114584 50 30 C33.5 30 17 30 0 30 C-0.79790122 26.80839513 -1.12818155 24.64265362 -1.1328125 21.4453125 C-1.13410156 20.58292969 -1.13539063 19.72054687 -1.13671875 18.83203125 C-1.13285156 17.93871094 -1.12898437 17.04539063 -1.125 16.125 C-1.12886719 15.23941406 -1.13273438 14.35382813 -1.13671875 13.44140625 C-1.13542969 12.57644531 -1.13414062 11.71148437 -1.1328125 10.8203125 C-1.13168457 10.03930176 -1.13055664 9.25829102 -1.12939453 8.45361328 C-0.97804341 5.58365335 -0.51476249 2.82531505 0 0 Z " fill="#070600" transform="translate(189,180)"/>
<path d="M0 0 C14.69202847 -0.15760221 29.32415994 0.32417442 44 1 C44.495 2.98 44.495 2.98 45 5 C45.33 3.68 45.66 2.36 46 1 C46.66 1 47.32 1 48 1 C48 16.51 48 32.02 48 48 C47.01 48 46.02 48 45 48 C44 47 44 47 43.90234375 44.49609375 C43.91394531 43.48675781 43.92554688 42.47742188 43.9375 41.4375 C43.94652344 40.42558594 43.95554688 39.41367187 43.96484375 38.37109375 C43.97644531 37.58863281 43.98804688 36.80617188 44 36 C43.01 36.66 42.02 37.32 41 38 C38.93086243 38.24050903 38.93086243 38.24050903 36.52856445 38.22705078 C35.17750359 38.22682419 35.17750359 38.22682419 33.79914856 38.22659302 C32.83031235 38.21627045 31.86147614 38.20594788 30.86328125 38.1953125 C29.37141548 38.19106766 29.37141548 38.19106766 27.84941101 38.18673706 C24.6703187 38.17553489 21.49150728 38.15043014 18.3125 38.125 C16.15820719 38.11497025 14.00390997 38.10584439 11.84960938 38.09765625 C6.56631028 38.07559546 1.28317521 38.04211756 -4 38 C-3.74438677 35.6568787 -3.40729228 33.32156597 -3 31 C0.33155251 29.33422375 4.06536059 29.87992144 7.7265625 29.90234375 C9.02078629 29.90446617 9.02078629 29.90446617 10.34115601 29.90663147 C13.1024723 29.91223812 15.86370812 29.92479173 18.625 29.9375 C20.4947905 29.94251414 22.36458226 29.9470772 24.234375 29.95117188 C28.82297277 29.9613597 33.41139608 29.98093378 38 30 C38 22.74 38 15.48 38 8 C33.2832698 7.3261814 29.48262991 6.89042757 24.83984375 6.97265625 C23.71642578 6.98490234 22.59300781 6.99714844 21.43554688 7.00976562 C19.09954822 7.04498169 16.76360463 7.08405734 14.42773438 7.12695312 C13.30560547 7.13791016 12.18347656 7.14886719 11.02734375 7.16015625 C10.01406006 7.17699463 9.00077637 7.19383301 7.95678711 7.21118164 C4.69962583 6.97854647 2.04512553 6.14918418 -1 5 C-0.67 3.35 -0.34 1.7 0 0 Z " fill="#171302" transform="translate(151,230)"/>
<path d="M0 0 C0.9794458 -0.00080566 1.9588916 -0.00161133 2.96801758 -0.00244141 C9.25675819 0.04433822 15.49703249 0.38127857 21.77052307 0.80953979 C27.23535057 1.16423997 32.69304202 1.32916441 38.16796875 1.43359375 C39.00878998 1.45025589 39.84961121 1.46691803 40.71591187 1.48408508 C44.17356599 1.55043969 47.63119779 1.61304763 51.08911133 1.66430664 C53.65729624 1.70397798 56.22503293 1.75541384 58.79296875 1.80859375 C59.95858589 1.82121498 59.95858589 1.82121498 61.14775085 1.83409119 C65.26896756 1.92819979 68.53794914 2.34917289 72.25 4.1875 C72.47792402 15.24181476 72.66599881 26.33041891 70.25 37.1875 C69.26 38.1775 69.26 38.1775 68.25 39.1875 C66.95407751 36.48113164 65.66316835 33.7725566 64.375 31.0625 C63.82779297 29.92167969 63.82779297 29.92167969 63.26953125 28.7578125 C59.84969802 21.54507332 57.97138241 15.12270646 57.25 7.1875 C50.08408462 6.38392102 42.94641584 5.92743021 35.7421875 5.65234375 C34.11750046 5.58787804 34.11750046 5.58787804 32.45999146 5.52210999 C30.17244432 5.43236865 27.88483441 5.34421506 25.59716797 5.25756836 C22.1830197 5.12721521 18.76926904 4.98874138 15.35546875 4.84960938 C0.64714949 4.27150612 -14.03092988 4.06424482 -28.75 4.1875 C-28.87180634 4.78130966 -28.99361267 5.37511932 -29.11911011 5.98692322 C-30.0066291 10.16837731 -30.90308156 14.10146792 -32.6953125 18.00390625 C-33.04980469 18.78701172 -33.40429688 19.57011719 -33.76953125 20.37695312 C-34.13433594 21.16005859 -34.49914062 21.94316406 -34.875 22.75 C-35.24753906 23.56791016 -35.62007812 24.38582031 -36.00390625 25.22851562 C-36.91156269 27.21837781 -37.82968065 29.2034627 -38.75 31.1875 C-39.41 31.1875 -40.07 31.1875 -40.75 31.1875 C-43.08172902 22.72558015 -42.14840058 12.23465608 -38.75 4.1875 C-34.22703923 1.8261978 -28.97010855 1.55158591 -23.9375 1.0625 C-23.07801758 0.97830811 -22.21853516 0.89411621 -21.33300781 0.80737305 C-14.22102937 0.18263802 -7.1373456 0.00545127 0 0 Z " fill="#151102" transform="translate(199.75,159.8125)"/>
<path d="M0 0 C3.41644098 2.9630744 5.70552485 6.28176787 6.203125 10.875 C6.37794788 18.80030399 5.22161779 26.74427021 0.125 33.0625 C-3.68690854 36.95828917 -6.91913447 38.07238441 -12.3125 38.3125 C-19.99378601 38.10834622 -25.49932511 35.37565955 -31 30 C-35.47836596 23.94815411 -36.66427917 19.38087972 -36 12 C-34.23007671 6.10025569 -31.90384353 3.43269047 -27 0 C-18.52407067 -4.23796467 -8.44609748 -4.27049873 0 0 Z M-25.3125 10.5625 C-28.14735176 14.65728588 -28.67793627 18.07122006 -28 23 C-25.98497111 26.75212276 -24.54533858 28.63644095 -21 31 C-16.42328792 31.75792684 -11.87763989 32.06639478 -7.7578125 29.7265625 C-3.52587529 26.1365342 -3.52587529 26.1365342 -1.76171875 21.046875 C-1.58240544 15.49760006 -2.18572578 12.32971668 -6 8 C-8.75651101 5.8238071 -10.45399829 5.06970235 -13.9375 4.625 C-18.89804106 5.23241319 -21.96662901 6.85491322 -25.3125 10.5625 Z " fill="#110E02" transform="translate(364,291)"/>
<path d="M0 0 C2.8234166 2.07891337 4.71163436 3.6460082 5.46166992 7.16772461 C5.63830317 9.75482156 5.63270556 12.28308652 5.5625 14.875 C5.57345703 15.74769531 5.58441406 16.62039063 5.59570312 17.51953125 C5.52815838 23.50849854 4.45491319 27.09440502 1 32 C-4.33490461 36.93478676 -8.10005986 38.29071874 -15.375 38.3125 C-16.66148437 38.32925781 -17.94796875 38.34601563 -19.2734375 38.36328125 C-25.75368425 37.73155908 -29.85646533 34.90681737 -34 30 C-37.19487883 25.05678357 -38.76217335 20.98850486 -38 15 C-36.09776872 9.29330615 -33.12661952 3.41431412 -29 -1 C-20.59930897 -4.76256303 -8.10259781 -4.71980349 0 0 Z M-26.5 9 C-29.66337905 13.21783873 -29.59603773 17.94627166 -29 23 C-27.67046087 26.96582529 -25.70188222 29.50549207 -22.25 31.9375 C-17.03511793 33.64236529 -12.99733123 33.70494043 -7.8125 31.875 C-4.48241685 29.65494457 -1.77434139 27.61663629 0 24 C0.94187372 18.96302314 0.5717539 15.16468386 -1.6875 10.5625 C-4.78530802 7.12979382 -7.36445793 5.52039975 -11.75 4.125 C-17.31235665 3.91106321 -22.15389783 5.52311827 -26.5 9 Z " fill="#120F02" transform="translate(191,296)"/>
<path d="M0 0 C1.22654297 0.02707031 2.45308594 0.05414063 3.71679688 0.08203125 C5.47540039 0.14197266 5.47540039 0.14197266 7.26953125 0.203125 C8.33405518 0.23567383 9.3985791 0.26822266 10.49536133 0.30175781 C13.45824035 0.79507838 14.38353221 1.4101809 16.1875 3.75 C13.18436252 5.25156874 10.39682478 4.84281204 7.0625 4.8125 C5.78117187 4.80347656 4.49984375 4.79445313 3.1796875 4.78515625 C1.69855469 4.76775391 1.69855469 4.76775391 0.1875 4.75 C1.75951172 4.82347656 1.75951172 4.82347656 3.36328125 4.8984375 C4.74221354 4.97348143 6.1211185 5.04902857 7.5 5.125 C8.19029297 5.1559375 8.88058594 5.186875 9.59179688 5.21875 C13.25740789 5.43124919 15.06650792 5.66933861 18.1875 7.75 C18.875 10.875 18.875 10.875 19.1875 13.75 C18.1975 13.75 17.2075 13.75 16.1875 13.75 C15.5996875 13.069375 15.5996875 13.069375 15 12.375 C10.20743807 8.07822034 3.21785674 8.66791137 -2.8125 8.75 C-1.70390625 8.99234375 -0.5953125 9.2346875 0.546875 9.484375 C2.01059243 9.82215594 3.47412469 10.16073998 4.9375 10.5 C5.66710937 10.65726562 6.39671875 10.81453125 7.1484375 10.9765625 C11.73665479 12.06105022 13.91187226 13.23829098 17.1875 16.75 C18.5075 16.75 19.8275 16.75 21.1875 16.75 C21.1875 19.06 21.1875 21.37 21.1875 23.75 C18.10507006 23.40750778 17.14901658 22.7104476 14.9375 20.4375 C9.82697953 15.44312772 3.33301798 12.6552356 -3.8125 12.3125 C-10.54378478 12.40165609 -15.54107312 14.6183411 -20.8125 18.75 C-25.21499181 23.91362989 -27.82608738 28.63121644 -28.375 35.375 C-28.45878906 36.37789063 -28.54257812 37.38078125 -28.62890625 38.4140625 C-28.71978516 39.57035156 -28.71978516 39.57035156 -28.8125 40.75 C-30.4625 40.42 -32.1125 40.09 -33.8125 39.75 C-32.04695264 29.79873304 -28.05354217 20.04364054 -20.8125 12.75 C-18.47543004 11.31486962 -16.46118684 10.5995788 -13.8125 9.75 C-12.8225 9.42 -11.8325 9.09 -10.8125 8.75 C-12.20933082 8.78347525 -13.60530637 8.85331784 -15 8.9375 C-15.77730469 8.97230469 -16.55460937 9.00710938 -17.35546875 9.04296875 C-21.41358374 10.21072521 -23.70313248 12.91484902 -25.85961914 16.48217773 C-26.87797013 18.42427326 -27.8234071 20.38755277 -28.75 22.375 C-29.43455668 23.79506318 -30.12076633 25.21433066 -30.80859375 26.6328125 C-31.14358887 27.32793945 -31.47858398 28.02306641 -31.82373047 28.73925781 C-33.99695704 33.15868844 -36.40898082 37.45279904 -38.8125 41.75 C-40.03408298 37.73254049 -39.21003485 35.70968208 -37.8125 31.75 C-37.69132812 30.67621094 -37.57015625 29.60242188 -37.4453125 28.49609375 C-36.74916983 24.37510105 -35.44444057 21.3479694 -33.5625 17.625 C-32.97984375 16.44679688 -32.3971875 15.26859375 -31.796875 14.0546875 C-29.73367772 10.61873297 -27.74458488 8.42931895 -24.8125 5.75 C-30.42620964 8.80265284 -32.28239385 11.81595905 -34.5625 17.6875 C-34.85253906 18.39068359 -35.14257812 19.09386719 -35.44140625 19.81835938 C-36.25025916 21.78878416 -37.03502691 23.7670245 -37.8125 25.75 C-38.20953125 26.74128906 -38.6065625 27.73257812 -39.015625 28.75390625 C-39.27859375 29.41261719 -39.5415625 30.07132812 -39.8125 30.75 C-41.4625 30.42 -43.1125 30.09 -44.8125 29.75 C-40.58531978 18.60184823 -35.18671161 6.97958587 -24.1328125 1.4765625 C-16.30795202 -0.97364634 -8.08360284 -0.28484666 0 0 Z " fill="#131002" transform="translate(353.8125,273.25)"/>
<path d="M0 0 C1.61608163 4.84824489 0.69418314 9.23852562 -1 14 C-6.6559866 20.94012642 -17.68249763 24.52722902 -26 27 C-24.12574798 33.17528122 -21.79767221 38.81593314 -18.75 44.5 C-18.39292969 45.19480469 -18.03585938 45.88960937 -17.66796875 46.60546875 C-15.52291855 50.64892574 -13.23365977 53.89140185 -10.17578125 57.3046875 C-6.59934158 61.79045701 -6.40697382 64.96291697 -6.99438477 70.56616211 C-7.14061279 71.57557861 -7.28684082 72.58499512 -7.4375 73.625 C-7.55859131 74.67373291 -7.67968262 75.72246582 -7.80444336 76.80297852 C-8.16716712 79.87444876 -8.58036896 82.93587262 -9 86 C-9.19401692 87.62063012 -9.38453682 89.24168576 -9.5703125 90.86328125 C-10.74558537 100.74558537 -10.74558537 100.74558537 -12 102 C-14.33297433 102.04092937 -16.66705225 102.04241723 -19 102 C-19.50509103 89.87781526 -19.57198262 77.14396523 -14 66 C-12.515 65.01 -12.515 65.01 -11 64 C-11.556875 63.319375 -12.11375 62.63875 -12.6875 61.9375 C-19.07871594 53.8189284 -23.71977625 45.38491682 -28 36 C-28.46921875 34.98808594 -28.9384375 33.97617188 -29.421875 32.93359375 C-32.00613319 26.99511003 -32.00613319 26.99511003 -31.984375 23.46484375 C-30.56142947 19.90183332 -27.9589709 18.87734044 -24.6875 17.25 C-15.67936873 12.4577252 -7.94981128 6.38285029 0 0 Z " fill="#110E02" transform="translate(157,166)"/>
<path d="M0 0 C2.53287089 2.50573299 5.02442963 5.02654374 7.4375 7.6484375 C13.97927918 14.6090501 20.32195736 18.95760494 29 23 C28.40021679 27.00807509 26.36043801 29.50817311 23.9375 32.6875 C23.5362793 33.21496826 23.13505859 33.74243652 22.72167969 34.28588867 C19.59218709 38.35164371 16.23881393 42.16884943 12.796875 45.96875 C7.56405502 51.67833707 7.56405502 51.67833707 6 59 C-18.255 58.505 -18.255 58.505 -43 58 C-43.33 55.69 -43.66 53.38 -44 51 C-42.37597866 49.37597866 -40.62005513 49.82905645 -38.375 49.8125 C-33.84306252 49.84158817 -29.53903701 50.31017298 -25.0625 51 C-22.37518275 51.35757548 -19.69320238 51.69551469 -17 52 C-16.18160645 52.09506836 -15.36321289 52.19013672 -14.52001953 52.28808594 C-3.65685636 53.65114061 -3.65685636 53.65114061 5.9921875 49.671875 C8.2975123 46.56088305 10.13717935 43.39128887 12 40 C13.4615833 38.09490177 14.95963112 36.21697957 16.5 34.375 C19.00212367 31.34829665 19.00212367 31.34829665 21 28 C19.89785156 27.85111328 19.89785156 27.85111328 18.7734375 27.69921875 C14.78374007 26.69336546 12.41005595 24.46737079 9.29296875 21.8671875 C7.09707308 19.99336309 7.09707308 19.99336309 4.86328125 18.6953125 C2.65240663 17.25129297 1.39158954 16.26242702 0 14 C-0.58179278 9.27690043 -0.40843708 4.73268368 0 0 Z " fill="#191502" transform="translate(275,168)"/>
<path d="M0 0 C1.47583955 0.0001591 2.95168467 0.00585225 4.42749023 0.01586914 C5.20293686 0.01728409 5.97838348 0.01869904 6.77732849 0.02015686 C9.26361893 0.02577194 11.74982059 0.03832693 14.23608398 0.05102539 C15.91772331 0.05603845 17.59936405 0.06060169 19.28100586 0.06469727 C23.41189965 0.07574626 27.54272674 0.09302094 31.67358398 0.11352539 C33.01771811 2.80179365 32.80598262 4.92587941 32.79858398 7.92602539 C32.80245117 9.48256836 32.80245117 9.48256836 32.80639648 11.07055664 C32.67358398 14.11352539 32.67358398 14.11352539 31.67358398 19.11352539 C19.46358398 19.11352539 7.25358398 19.11352539 -5.32641602 19.11352539 C-5.32641602 8.88275616 -5.32641602 8.88275616 -4.88891602 5.11352539 C-4.80770508 4.37102539 -4.72649414 3.62852539 -4.64282227 2.86352539 C-4.06526796 -0.33084906 -3.40641851 0.11625575 0 0 Z " fill="#040300" transform="translate(155.326416015625,238.886474609375)"/>
<path d="M0 0 C1.89680527 -0.00674655 3.79360199 -0.01690632 5.69036865 -0.03076172 C17.14426843 -0.10832101 28.17649033 0.41761692 39.50790405 2.17724609 C39.89009172 3.83339267 40.22185507 5.50181634 40.50790405 7.17724609 C39.50790405 8.17724609 39.50790405 8.17724609 37.77207947 8.25953674 C37.01273605 8.23955124 36.25339264 8.21956573 35.47103882 8.19897461 C34.17065926 8.16884529 34.17065926 8.16884529 32.8440094 8.1381073 C31.41113335 8.0975396 31.41113335 8.0975396 29.9493103 8.05615234 C27.88990421 8.00710026 25.83049659 7.95811222 23.77108765 7.90917969 C22.67850647 7.88136414 21.58592529 7.85354858 20.4602356 7.82489014 C2.43507311 7.37214339 -15.58613922 7.06367032 -33.61709595 7.05224609 C-34.4648056 7.04983917 -35.31251526 7.04743225 -36.18591309 7.04495239 C-46.99827676 7.01841558 -57.70813175 7.36227617 -68.49209595 8.17724609 C-68.16209595 5.86724609 -67.83209595 3.55724609 -67.49209595 1.17724609 C-44.99814915 0.58871892 -22.50237656 0.0709111 0 0 Z " fill="#161202" transform="translate(231.49209594726563,151.82275390625)"/>
<path d="M0 0 C1.65 0.33 3.3 0.66 5 1 C5.17348294 26.2122423 4.69639148 51.39217596 4.07287598 76.5958252 C3.94931867 81.62566293 3.83035629 86.65560948 3.7109375 91.68554688 C3.47830159 101.45713905 3.24082086 111.22860634 3 121 C1.35 121 -0.3 121 -2 121 C-2.11813774 92.90684556 -2.02489232 64.82218985 -1.59428024 36.73231888 C-1.56252729 34.62680971 -1.53253074 32.52128182 -1.50296021 30.41574097 C-1.4468676 26.45674299 -1.38233682 22.49790958 -1.31640625 18.5390625 C-1.29968872 17.35688644 -1.28297119 16.17471039 -1.26574707 14.95671082 C-1.24580688 13.8619191 -1.2258667 12.76712738 -1.20532227 11.63916016 C-1.18977798 10.69013824 -1.1742337 9.74111633 -1.15821838 8.76333618 C-0.98778169 5.78660327 -0.53923737 2.93053141 0 0 Z " fill="#1B1703" transform="translate(226,227)"/>
<path d="M0 0 C1.25159912 0.00523682 2.50319824 0.01047363 3.79272461 0.01586914 C4.78942421 0.01799156 4.78942421 0.01799156 5.80625916 0.02015686 C7.93590735 0.02577021 10.06545175 0.03832485 12.19506836 0.05102539 C13.63582205 0.05603868 15.07657739 0.06060188 16.51733398 0.06469727 C20.05577938 0.07574394 23.59416375 0.09301747 27.13256836 0.11352539 C27.34092693 1.84783186 27.53469196 3.58389508 27.72241211 5.32055664 C27.83190186 6.28711182 27.9413916 7.25366699 28.05419922 8.24951172 C28.17026615 12.49119764 26.92785996 15.30750719 25.13256836 19.11352539 C4.80475467 21.35438674 4.80475467 21.35438674 -3.86743164 18.11352539 C-3.89427476 15.30096258 -3.91419352 12.48865298 -3.92993164 9.67602539 C-3.93831055 8.87358398 -3.94668945 8.07114258 -3.95532227 7.24438477 C-3.96394594 5.20057318 -3.91971314 3.15668637 -3.86743164 1.11352539 C-2.86743164 0.11352539 -2.86743164 0.11352539 0 0 Z " fill="#080701" transform="translate(253.867431640625,240.886474609375)"/>
<path d="M0 0 C0.97484848 0.00222061 1.94969696 0.00444122 2.9540863 0.00672913 C4.05515213 0.00680466 5.15621796 0.00688019 6.29064941 0.00695801 C8.08749428 0.01469994 8.08749428 0.01469994 9.92063904 0.02259827 C11.14000656 0.02401321 12.35937408 0.02542816 13.61569214 0.02688599 C17.52856349 0.03250485 21.4413786 0.04506055 25.35423279 0.05775452 C27.99941426 0.06276709 30.64459662 0.06733041 33.28977966 0.07142639 C39.79045005 0.08248041 46.2910874 0.09923688 52.79173279 0.12025452 C52.79173279 2.43025452 52.79173279 4.74025452 52.79173279 7.12025452 C49.5280691 8.20814241 47.92460898 8.04908202 44.54173279 7.68275452 C37.93468502 7.11408449 31.35974619 6.96954464 24.72923279 6.93275452 C23.21184509 6.91353943 23.21184509 6.91353943 21.6638031 6.89393616 C20.70441833 6.89256653 19.74503357 6.8911969 18.75657654 6.88978577 C17.89669128 6.88567688 17.03680603 6.88156799 16.15086365 6.87733459 C13.56432408 7.14367081 11.97355343 7.71944536 9.79173279 9.12025452 C8.50891809 11.50046056 8.50891809 11.50046056 7.66673279 14.30775452 C7.33931091 15.28744202 7.01188904 16.26712952 6.67454529 17.27650452 C5.65925734 20.5469896 4.67411005 23.8113398 3.79173279 27.12025452 C1.48173279 27.12025452 -0.82826721 27.12025452 -3.20826721 27.12025452 C-3.23713258 22.80776842 -3.25501976 18.4953069 -3.27076721 14.18275452 C-3.27914612 12.9510553 -3.28752502 11.71935608 -3.29615784 10.45033264 C-3.29938049 9.28050842 -3.30260315 8.1106842 -3.30592346 6.90541077 C-3.31116028 5.82138977 -3.31639709 4.73736877 -3.3217926 3.62049866 C-3.17736944 0.43977264 -3.16354072 0.17227537 0 0 Z " fill="#161202" transform="translate(141.20826721191406,268.87974548339844)"/>
<path d="M0 0 C1.32 0 2.64 0 4 0 C4.35463647 27.86897096 3.72314996 55.70493938 3 83.5625 C2.97608437 84.48402863 2.95216873 85.40555725 2.92752838 86.35501099 C2.62701312 97.90357744 2.31754926 109.45188962 2 121 C0.68 121 -0.64 121 -2 121 C-2.16385976 95.22911367 -1.72121899 69.49250793 -1.07287598 43.73040771 C-0.9490907 38.77412388 -0.83026364 33.81772097 -0.7109375 28.86132812 C-0.47863043 19.24076741 -0.24112278 9.62034354 0 0 Z " fill="#262004" transform="translate(201,227)"/>
<path d="M0 0 C2.97 0 5.94 0 9 0 C9.14401589 12.44937336 8.98746395 24.89952992 8.73654175 37.34661865 C8.70390438 39.07085469 8.67631886 40.79519391 8.65383911 42.51959229 C8.6204441 44.98100284 8.56825215 47.44136944 8.51171875 49.90234375 C8.50532379 50.64438553 8.49892883 51.38642731 8.49234009 52.1509552 C8.3669202 56.56506492 7.77664959 59.51475443 5 63 C2.375 63.875 2.375 63.875 0 64 C-1 63 -1 63 -1.0534668 59.90478516 C-1.024714 58.53273883 -0.98948526 57.1608192 -0.94921875 55.7890625 C-0.9303511 55.06512299 -0.91148346 54.34118347 -0.89204407 53.5953064 C-0.85008715 52.06020606 -0.80534245 50.52517981 -0.75805664 48.99023438 C-0.68800943 46.64207742 -0.63358955 44.29389701 -0.58007812 41.9453125 C-0.53741736 40.45570139 -0.49382787 38.96611653 -0.44921875 37.4765625 C-0.43453049 36.77334869 -0.41984222 36.07013489 -0.40470886 35.34561157 C-0.27702387 31.71236535 -0.06983957 30.10475936 2 27 C2.30625799 24.90727825 2.30625799 24.90727825 2.265625 22.62109375 C2.26820313 21.78255859 2.27078125 20.94402344 2.2734375 20.08007812 C2.26570312 19.20802734 2.25796875 18.33597656 2.25 17.4375 C2.25773438 16.56158203 2.26546875 15.68566406 2.2734375 14.78320312 C2.27085937 13.94595703 2.26828125 13.10871094 2.265625 12.24609375 C2.26336914 11.47966553 2.26111328 10.7132373 2.25878906 9.92358398 C2.16588484 7.76154346 2.16588484 7.76154346 0 6 C-0.125 2.875 -0.125 2.875 0 0 Z " fill="#151102" transform="translate(232,233)"/>
<path d="M0 0 C0.93474907 0.0449485 0.93474907 0.0449485 1.88838196 0.09080505 C21.85659428 1.01718802 41.78196109 1.12518519 61.7668457 1.06866455 C65.87125104 1.05821208 69.97566316 1.0538213 74.08007812 1.04882812 C82.05340316 1.03828117 90.02669656 1.02134397 98 1 C98.495 4.465 98.495 4.465 99 8 C96.83314691 7.85696335 94.6665249 7.71042449 92.5 7.5625 C91.2934375 7.48128906 90.086875 7.40007812 88.84375 7.31640625 C86.42392387 7.11721325 84.00784038 6.84913405 81.60742188 6.48413086 C75.57027626 5.72211767 69.51172025 5.8969422 63.4375 5.9375 C61.4428104 5.94328921 59.44812076 5.94907218 57.45343018 5.95451355 C53.27213215 5.96755958 49.09087248 5.98962164 44.90960693 6.01037598 C7.23103742 6.19390961 7.23103742 6.19390961 0 5 C-0.33 4.34 -0.66 3.68 -1 3 C-0.67 2.01 -0.34 1.02 0 0 Z " fill="#231E04" transform="translate(164,211)"/>
<path d="M0 0 C8.91 0 17.82 0 27 0 C25.35 1.32 23.7 2.64 22 4 C16.91423975 9.46290652 13.2328824 15.79638499 9.66479492 22.30224609 C8.27122857 24.83709219 7.05790192 26.94209808 5 29 C2.8359375 29.1953125 2.8359375 29.1953125 0.375 29.125 C-0.44226563 29.10695313 -1.25953125 29.08890625 -2.1015625 29.0703125 C-2.72804688 29.04710937 -3.35453125 29.02390625 -4 29 C-3.27876953 27.88238281 -3.27876953 27.88238281 -2.54296875 26.7421875 C-0.10050337 21.85725674 -0.42867214 16.47342981 -0.3125 11.125 C-0.209375 7.45375 -0.10625 3.7825 0 0 Z " fill="#0F0D01" transform="translate(300,272)"/>
<path d="M0 0 C2.5945998 -0.30579006 4.94603768 -0.42003844 7.54296875 -0.3984375 C8.30362137 -0.40130768 9.06427399 -0.40417786 9.84797668 -0.40713501 C11.46791319 -0.40918087 13.08787411 -0.40361466 14.70776367 -0.39111328 C17.13324972 -0.37535252 19.55699471 -0.39079057 21.98242188 -0.41015625 C34.17172671 -0.42696132 47.69695308 -0.28752099 58 7 C58 7.33 58 7.66 58 8 C50.27716951 8.1685632 42.55419344 8.32838989 34.83105469 8.48217773 C32.20438555 8.53550865 29.57775606 8.5908308 26.95117188 8.64819336 C23.17326401 8.73035285 19.39527095 8.80532312 15.6171875 8.87890625 C14.44509735 8.90594131 13.2730072 8.93297638 12.06539917 8.96083069 C10.964711 8.98092697 9.86402283 9.00102325 8.72998047 9.02172852 C7.76623505 9.04171402 6.80248962 9.06169952 5.80953979 9.08229065 C2.79584235 8.99402028 -0.04026518 8.55863632 -3 8 C-2.45276317 4.62537285 -1.9451 2.91765 0 0 Z " fill="#181402" transform="translate(303,260)"/>
<path d="M0 0 C24.75 0 49.5 0 75 0 C75.495 0.99 75.495 0.99 76 2 C70.57308765 2.89126965 65.27948822 3.20400749 59.78515625 3.31640625 C58.92941513 3.33718735 58.07367401 3.35796844 57.19200134 3.37937927 C54.48224224 3.44429954 51.7723936 3.50348978 49.0625 3.5625 C47.21548586 3.60574005 45.36848048 3.64935601 43.52148438 3.69335938 C39.01441259 3.79992119 34.50725156 3.90134737 30 4 C34.72818636 4.02508834 39.45633231 4.04303969 44.18457031 4.05493164 C45.78646522 4.0598995 47.38835574 4.06667608 48.99023438 4.07543945 C59.05049016 4.12901851 68.97157671 3.89868776 79 3 C78.67 3.99 78.34 4.98 78 6 C76.38496582 6.03758423 76.38496582 6.03758423 74.73730469 6.07592773 C69.74145584 6.19318899 64.74570939 6.31444828 59.75 6.4375 C58.85253052 6.45956512 57.95506104 6.48163025 57.03039551 6.50436401 C46.51507275 6.7662195 36.01532991 7.08065653 25.51367188 7.69287109 C17.01281513 8.16152769 8.51054104 8.08664578 0 8 C0 5.36 0 2.72 0 0 Z " fill="#393007" transform="translate(232,305)"/>
<path d="M0 0 C0.67806702 0.00233139 1.35613403 0.00466278 2.05474854 0.00706482 C3.48356784 0.0167606 4.91235112 0.03845184 6.34082031 0.0715332 C8.49604116 0.12064746 10.64895894 0.13300409 12.8046875 0.13867188 C20.31674663 0.20148573 27.44457138 0.75544536 34.765625 2.55859375 C35.095625 2.55859375 35.425625 2.55859375 35.765625 2.55859375 C35.81961487 4.82916752 35.85841242 7.10010663 35.890625 9.37109375 C35.91382813 10.63566406 35.93703125 11.90023438 35.9609375 13.203125 C35.765625 16.55859375 35.765625 16.55859375 33.765625 19.55859375 C33.32863281 18.61886719 33.32863281 18.61886719 32.8828125 17.66015625 C32.47289062 16.84289062 32.06296875 16.025625 31.640625 15.18359375 C31.04894531 13.96542969 31.04894531 13.96542969 30.4453125 12.72265625 C28.16773444 9.78828824 26.35811423 9.38366305 22.765625 8.55859375 C17.78030331 7.95945078 12.78049988 7.77924824 7.765625 7.55859375 C6.6209375 7.48125 5.47625 7.40390625 4.296875 7.32421875 C-1.82913184 7.00334896 -1.82913184 7.00334896 -7.234375 9.55859375 C-9.58942462 13.09116818 -11.51246334 16.68188761 -13.234375 20.55859375 C-14.554375 19.89859375 -15.874375 19.23859375 -17.234375 18.55859375 C-16.71932075 16.48928755 -16.17103717 14.42823853 -15.609375 12.37109375 C-15.30773437 11.22253906 -15.00609375 10.07398438 -14.6953125 8.890625 C-11.64167002 1.92603399 -7.33551573 -0.07923875 0 0 Z " fill="#181402" transform="translate(163.234375,276.44140625)"/>
<path d="M0 0 C2.33294775 -0.04241723 4.66702567 -0.04092937 7 0 C8 1 8 1 8.11352539 3.86743164 C8.10828857 5.11903076 8.10305176 6.37062988 8.09765625 7.66015625 C8.0962413 8.32462265 8.09482635 8.98908905 8.09336853 9.6736908 C8.08775518 11.80333899 8.07520054 13.93288339 8.0625 16.0625 C8.05748671 17.50325369 8.05292351 18.94400903 8.04882812 20.38476562 C8.03778145 23.92321102 8.02050792 27.46159539 8 31 C5.2079699 30.8595017 2.41650204 30.71284617 -0.375 30.5625 C-1.1690625 30.52318359 -1.963125 30.48386719 -2.78125 30.44335938 C-8.7734375 30.11328125 -8.7734375 30.11328125 -11 29 C-9.22552431 23.58317947 -7.38786472 18.19091822 -5.5 12.8125 C-5.0978125 11.66394531 -4.695625 10.51539063 -4.28125 9.33203125 C-3.03842785 6.09993584 -1.60144754 3.06788934 0 0 Z " fill="#0F0C01" transform="translate(177,179)"/>
<path d="M0 0 C5.82071622 -0.02464638 11.64140234 -0.0428343 17.4621582 -0.05493164 C19.44393441 -0.05997267 21.42570689 -0.06680538 23.4074707 -0.07543945 C26.24952109 -0.08751515 29.09152247 -0.09323045 31.93359375 -0.09765625 C32.82525742 -0.10281754 33.71692108 -0.10797882 34.63560486 -0.11329651 C36.75740601 -0.11349177 38.8791078 -0.0621003 41 0 C42.8159795 1.8159795 42.16601659 4.31051449 42.18994141 6.72851562 C42.18913574 7.51935547 42.18833008 8.31019531 42.1875 9.125 C42.18669434 9.92873047 42.18588867 10.73246094 42.18505859 11.56054688 C41.9794916 32.0205084 41.9794916 32.0205084 38 36 C36.70407751 33.29363164 35.41316835 30.5850566 34.125 27.875 C33.76019531 27.11445313 33.39539063 26.35390625 33.01953125 25.5703125 C30.3510686 19.94228218 27.9525782 14.59207039 27.4375 8.3125 C27.2075635 5.59549525 26.87449254 3.62347763 26 1 C17.42 1 8.84 1 0 1 C0 0.67 0 0.34 0 0 Z " fill="#0E0B01" transform="translate(230,163)"/>
<path d="M0 0 C1.39008774 -0.00956978 1.39008774 -0.00956978 2.80825806 -0.01933289 C4.3328212 -0.02100212 4.3328212 -0.02100212 5.88818359 -0.02270508 C6.9420224 -0.02603348 7.99586121 -0.02936188 9.08163452 -0.03279114 C11.33306441 -0.03787447 13.58450188 -0.04019903 15.8359375 -0.04003906 C19.19593908 -0.04217859 22.55558611 -0.06018443 25.91552734 -0.0793457 C40.26541448 -0.11555265 54.39258214 0.6227681 68.66162109 2.14526367 C68.33162109 3.46526367 68.00162109 4.78526367 67.66162109 6.14526367 C43.96970148 6.2596239 20.33523801 6.17849408 -3.33837891 5.14526367 C-3.99837891 3.82526367 -4.65837891 2.50526367 -5.33837891 1.14526367 C-3.76329639 -0.42981884 -2.1869916 0.01020799 0 0 Z " fill="#1A1503" transform="translate(180.33837890625,171.854736328125)"/>
<path d="M0 0 C1.58578064 2.95875089 2.60558768 5.84967846 3.5625 9.0625 C5.71678233 15.7219355 8.69501212 21.89669154 11.82641602 28.14868164 C15.18569412 34.97063316 17.38715393 41.25692137 17 49 C15.02 49 13.04 49 11 49 C10.48953125 47.59814453 10.48953125 47.59814453 9.96875 46.16796875 C6.78053261 37.49986298 3.36694304 28.95790847 -0.28320312 20.47338867 C-1.20473397 18.32185232 -2.10559737 16.16292412 -3 14 C-3.45632812 12.9171875 -3.91265625 11.834375 -4.3828125 10.71875 C-5 8 -5 8 -4.1015625 5.6640625 C-3.61429688 4.99117187 -3.12703125 4.31828125 -2.625 3.625 C-2.14289063 2.93664062 -1.66078125 2.24828125 -1.1640625 1.5390625 C-0.77992188 1.03117188 -0.39578125 0.52328125 0 0 Z " fill="#141002" transform="translate(254,170)"/>
<path d="M0 0 C3.3 0 6.6 0 10 0 C9.67257813 1.18464844 9.34515625 2.36929687 9.0078125 3.58984375 C7.53739435 10.20672541 7.78530879 16.81841091 7.875 23.5625 C7.88402344 24.85736328 7.89304688 26.15222656 7.90234375 27.48632812 C7.92574906 30.65774771 7.95853772 33.82877373 8 37 C5.69 37 3.38 37 1 37 C-1.57431776 29.46092655 -2.30097898 22.48032169 -2.3125 14.5625 C-2.31765625 13.69850586 -2.3228125 12.83451172 -2.328125 11.94433594 C-2.27992241 7.53207719 -2.06618037 4.00888383 0 0 Z " fill="#0C0A01" transform="translate(123,255)"/>
<path d="M0 0 C2.53287089 2.50573299 5.02442963 5.02654374 7.4375 7.6484375 C13.97927918 14.6090501 20.32195736 18.95760494 29 23 C28.39005934 26.06325753 27.42271989 28.20050634 25.625 30.75 C25.20476562 31.36359375 24.78453125 31.9771875 24.3515625 32.609375 C23.90554688 33.06828125 23.45953125 33.5271875 23 34 C22.01 34 21.02 34 20 34 C19.01 34.495 19.01 34.495 18 35 C19.875 30.25 19.875 30.25 21 28 C20.26523437 27.90074219 19.53046875 27.80148438 18.7734375 27.69921875 C14.78374007 26.69336546 12.41005595 24.46737079 9.29296875 21.8671875 C7.09707308 19.99336309 7.09707308 19.99336309 4.86328125 18.6953125 C2.65240663 17.25129297 1.39158954 16.26242702 0 14 C-0.58179278 9.27690043 -0.40843708 4.73268368 0 0 Z " fill="#0F0D01" transform="translate(275,168)"/>
<path d="M0 0 C3.0625 2 3.0625 2 5 5 C5.94884067 9.67642901 5.66524378 12.93560995 3.125 17 C-0.54784997 20.45679997 -3.60835018 20.46939797 -8.51171875 20.3984375 C-11 20 -11 20 -14.125 17.5625 C-16.34884435 14.22277646 -16.65610498 11.07008095 -16.4296875 7.12109375 C-15.78145699 3.92119224 -14.37844602 2.17457922 -12 0 C-7.79813812 -1.40062063 -4.27547249 -1.06325235 0 0 Z M-11 3 C-14.21103628 6.87659348 -14.21103628 6.87659348 -14.9375 11.6875 C-13.91483851 14.210065 -13.11219795 15.30928373 -11 17 C-8.82504919 17.47307456 -8.82504919 17.47307456 -6.5 17.375 C-5.33984375 17.38660156 -5.33984375 17.38660156 -4.15625 17.3984375 C-1.46401459 16.90095922 -0.57454083 16.22435134 1 14 C1.3606631 11.94636394 1.3606631 11.94636394 1.1875 9.8125 C1.125625 8.554375 1.06375 7.29625 1 6 C0.67 6 0.34 6 0 6 C-0.268125 7.11375 -0.53625 8.2275 -0.8125 9.375 C-2 13 -2 13 -5 15 C-8.6875 14.625 -8.6875 14.625 -12 14 C-11.25 6.375 -11.25 6.375 -9 3 C-9.66 3 -10.32 3 -11 3 Z " fill="#141102" transform="translate(182,305)"/>
<path d="M0 0 C1.65 0 3.3 0 5 0 C17 23.37752161 17 23.37752161 17 29 C11.72 29.33 6.44 29.66 1 30 C1.020625 28.02 1.04125 26.04 1.0625 24 C1.07070997 15.97064582 0.58221012 8.00538921 0 0 Z " fill="#100D01" transform="translate(242,181)"/>
<path d="M0 0 C25.69102038 -0.48389346 51.34137193 0.86501975 77 2 C76.67 3.65 76.34 5.3 76 7 C72.68727224 6.85908107 69.37488029 6.71134606 66.0625 6.5625 C65.13630859 6.52318359 64.21011719 6.48386719 63.25585938 6.44335938 C61.87817383 6.38051758 61.87817383 6.38051758 60.47265625 6.31640625 C59.22367554 6.26141968 59.22367554 6.26141968 57.94946289 6.20532227 C55.55920675 6.03892831 53.21823572 5.790291 50.84179688 5.5 C45.58316181 4.90012678 40.34714701 4.77568609 35.05859375 4.68359375 C34.05031021 4.66281265 33.04202667 4.64203156 32.00318909 4.62062073 C28.81468851 4.55577149 25.62611283 4.49654392 22.4375 4.4375 C20.26236234 4.39425316 18.087232 4.35063701 15.91210938 4.30664062 C10.60814994 4.20015738 5.30411751 4.09827685 0 4 C0 2.68 0 1.36 0 0 Z " fill="#251F04" transform="translate(175,166)"/>
<path d="M0 0 C1.13244141 0.06638672 2.26488281 0.13277344 3.43164062 0.20117188 C13.82771592 0.97919283 13.82771592 0.97919283 17.5625 5.3125 C19.375 8.5625 19.375 8.5625 20.5625 11.3125 C15.5625 9.3125 15.5625 9.3125 13.5390625 8.2578125 C9.08537131 6.84338564 4.76813273 7.02399441 0.125 7.0625 C-0.80376953 7.05476563 -1.73253906 7.04703125 -2.68945312 7.0390625 C-7.61016215 7.05307164 -11.89523204 7.18146844 -16.4375 9.3125 C-17.55835312 11.6555809 -17.55835312 11.6555809 -18.4375 14.3125 C-21.0625 17.125 -21.0625 17.125 -23.4375 19.3125 C-23.86298626 12.22106229 -23.21969726 7.63318706 -18.5 2 C-13.28315892 -2.26832452 -6.28222836 -0.47392874 0 0 Z " fill="#1C1703" transform="translate(175.4375,284.6875)"/>
<path d="M0 0 C0.66 0.33 1.32 0.66 2 1 C3.69507 7.18296962 2.22836443 11.3147825 -0.125 17.125 C-0.44686279 17.95668701 -0.76872559 18.78837402 -1.1003418 19.64526367 C-2.05353588 22.10232824 -3.0260589 24.55110248 -4 27 C-4.94436361 29.43491417 -5.87798305 31.87377558 -6.8125 34.3125 C-7.19019531 35.27800781 -7.56789062 36.24351562 -7.95703125 37.23828125 C-9.05113066 40.13539093 -10.03906432 43.05631921 -11 46 C-12.65 46 -14.3 46 -16 46 C-16.56817704 30.28696604 -6.29103238 14.01492127 0 0 Z " fill="#1B1603" transform="translate(172,170)"/>
<path d="M0 0 C3.34672477 -0.04897646 6.68863681 -0.05527929 10.03515625 -0.01171875 C13.78284345 0.02958452 17.50212197 -0.10468093 21.24609375 -0.26953125 C37.37520568 -0.69222192 37.37520568 -0.69222192 41.90478516 2.22802734 C44.94935497 5.36240747 46.66644715 9.03637607 48.23535156 13.07373047 C48.99593908 14.9897699 49.87325136 16.77582576 50.8359375 18.59765625 C52.29689513 21.37083149 53.67394672 24.16068592 55 27 C54.34 27.66 53.68 28.32 53 29 C52.53709779 31.66242821 52.53709779 31.66242821 52.375 34.625 C52.30023438 35.62789063 52.22546875 36.63078125 52.1484375 37.6640625 C52.09945312 38.43492187 52.05046875 39.20578125 52 40 C51.67 40 51.34 40 51 40 C50.87625 39.0925 50.7525 38.185 50.625 37.25 C50.20411029 34.12717386 50.20411029 34.12717386 48.9375 32.125 C47.89529799 29.76267545 47.98894287 28.54286083 48.125 26 C48.22074497 22.78655951 48.18882452 22.24547188 46.125 19.5625 C44.09294454 17.97582559 44.09294454 17.97582559 42 17 C41.14814527 14.5113354 40.52895891 11.99351892 39.87890625 9.4453125 C38.88452463 6.67872185 38.38665293 5.70218692 36 4 C33.41225229 3.73846931 31.07100347 3.65041562 28.48828125 3.70703125 C27.39594429 3.71339851 27.39594429 3.71339851 26.28153992 3.71989441 C23.95814873 3.73667267 21.6356285 3.77432145 19.3125 3.8125 C17.73634066 3.82754803 16.16016771 3.84123623 14.58398438 3.85351562 C10.72232123 3.88657315 6.86130822 3.93834806 3 4 C3.33 3.34 3.66 2.68 4 2 C2.68 1.34 1.36 0.68 0 0 Z " fill="#171302" transform="translate(244,234)"/>
<path d="M0 0 C2.35684056 0.57809297 4.69011685 1.25613932 7 2 C7.83273437 2.21785156 8.66546875 2.43570312 9.5234375 2.66015625 C14.53614059 4.00520708 17.46475786 5.05684531 21 9 C22.32 9 23.64 9 25 9 C25 11.31 25 13.62 25 16 C21.91757006 15.65750778 20.96151658 14.9604476 18.75 12.6875 C13.63947953 7.69312772 7.14551798 4.9052356 0 4.5625 C-6.73128478 4.65165609 -11.72857312 6.8683411 -17 11 C-21.40249181 16.16362989 -24.01358738 20.88121644 -24.5625 27.625 C-24.68818359 29.12933594 -24.68818359 29.12933594 -24.81640625 30.6640625 C-24.87699219 31.43492187 -24.93757813 32.20578125 -25 33 C-26.65 32.67 -28.3 32.34 -30 32 C-28.23592536 22.05703387 -24.2458453 12.28093414 -17 5 C-14.68741999 3.62428609 -12.57610193 2.87490254 -10 2 C-6.25405125 -0.49729916 -4.44844343 -0.2965629 0 0 Z " fill="#2D2605" transform="translate(350,281)"/>
<path d="M0 0 C0.86074127 0.02009628 1.72148254 0.04019257 2.60830688 0.06089783 C3.53855682 0.08793289 4.46880676 0.11496796 5.42724609 0.14282227 C6.85464615 0.17823875 6.85464615 0.17823875 8.31088257 0.21437073 C11.35763139 0.29109484 14.40413161 0.37508154 17.45068359 0.45922852 C19.51317133 0.51244044 21.57567129 0.56518089 23.63818359 0.61743164 C28.70084176 0.74672184 33.76328865 0.88252686 38.82568359 1.02172852 C38.82568359 2.67172852 38.82568359 4.32172852 38.82568359 6.02172852 C23.31568359 6.02172852 7.80568359 6.02172852 -8.17431641 6.02172852 C-5.87589954 0.27568635 -5.59483752 -0.14723257 0 0 Z " fill="#171302" transform="translate(159.17431640625,216.978271484375)"/>
<path d="M0 0 C5.94 0 11.88 0 18 0 C18 4.29 18 8.58 18 13 C15.18780295 13.19384179 12.37545804 13.38036603 9.5625 13.5625 C8.35883789 13.64661133 8.35883789 13.64661133 7.13085938 13.73242188 C5.08937889 13.8616295 3.04453631 13.9351273 1 14 C0 13 0 13 -0.09765625 10.05859375 C-0.06510417 6.70572917 -0.03255208 3.35286458 0 0 Z " fill="#110E02" transform="translate(206,247)"/>
<path d="M0 0 C2.91368224 1.98378365 4.63558769 3.41448681 5.4453125 6.9375 C5.65231499 10.58074386 5.16906633 12.6821553 3.4375 15.9375 C0.22755042 18.65361118 -1.82044153 19 -6 19 C-9.57387602 17.41161066 -10.81089572 16.28365642 -13 13 C-13.50474782 8.35632001 -12.79965982 5.73287976 -10 2 C-6.24952518 -0.50031654 -4.44143734 -0.53603554 0 0 Z M-9.9375 5.5625 C-11.50208963 9.15185269 -10.30242531 11.43546757 -9 15 C-6.09926819 15.67801034 -6.09926819 15.67801034 -3 16 C-2.34 15.34 -1.68 14.68 -1 14 C-3.97 13.505 -3.97 13.505 -7 13 C-7 10.69 -7 8.38 -7 6 C-5.68 5.34 -4.36 4.68 -3 4 C-6.07927988 3.66710488 -7.47998189 3.58063056 -9.9375 5.5625 Z " fill="#120F02" transform="translate(353,300)"/>
<path d="M0 0 C5.94 0 11.88 0 18 0 C18.125 10.75 18.125 10.75 17 13 C11.39 13 5.78 13 0 13 C0 8.71 0 4.42 0 0 Z " fill="#0F0C01" transform="translate(205,302)"/>
<path d="M0 0 C9.9 0 19.8 0 30 0 C30 2.31 30 4.62 30 7 C20.1 7 10.2 7 0 7 C0 4.69 0 2.38 0 0 Z " fill="#171302" transform="translate(200,218)"/>
<path d="M0 0 C0.80928955 0.00193359 1.6185791 0.00386719 2.45239258 0.00585938 C14.30790706 0.08510894 26.15620503 0.62558687 38 1.125 C38 2.445 38 3.765 38 5.125 C33.59326518 5.15019685 29.18657133 5.16808799 24.77978516 5.17993164 C23.28856677 5.18488214 21.79735301 5.19164426 20.30615234 5.20043945 C9.82747438 5.26058041 -0.55006651 4.90945252 -11 4.125 C-11 3.135 -11 2.145 -11 1.125 C-7.28837126 -0.11220958 -3.86489818 -0.02249603 0 0 Z " fill="#292204" transform="translate(243,226.875)"/>
<path d="M0 0 C4.95 0 9.9 0 15 0 C15 1.32 15 2.64 15 4 C21.72210734 3.88110946 28.44408791 3.75632802 35.16601562 3.62768555 C37.44691566 3.58470134 39.72784038 3.54300535 42.00878906 3.50268555 C60.02516061 3.19386736 60.02516061 3.19386736 78 2 C77.67 2.99 77.34 3.98 77 5 C51.3262853 5.7916448 25.6856412 6.14205451 0 6 C0 4.02 0 2.04 0 0 Z " fill="#0C0A01" transform="translate(233,306)"/>
<path d="M0 0 C15.18 0.33 30.36 0.66 46 1 C46 2.32 46 3.64 46 5 C30.49 5 14.98 5 -1 5 C-0.67 3.35 -0.34 1.7 0 0 Z " fill="#151202" transform="translate(152,224)"/>
<path d="M0 0 C2.81256281 -0.02684312 5.62487241 -0.04676188 8.4375 -0.0625 C9.23994141 -0.07087891 10.04238281 -0.07925781 10.86914062 -0.08789062 C12.91295221 -0.0965143 14.95683902 -0.0522815 17 0 C18 1 18 1 18.1328125 2.8125 C18.13023437 3.534375 18.12765625 4.25625 18.125 5 C18.12886719 6.0828125 18.12886719 6.0828125 18.1328125 7.1875 C18 9 18 9 17 10 C14.13732433 10.07325168 11.299281 10.09238205 8.4375 10.0625 C7.63119141 10.05798828 6.82488281 10.05347656 5.99414062 10.04882812 C3.99606244 10.03700518 1.99802217 10.01906914 0 10 C0 6.7 0 3.4 0 0 Z " fill="#151202" transform="translate(206,267)"/>
<path d="M0 0 C5.61 0.33 11.22 0.66 17 1 C17 4.3 17 7.6 17 11 C11.06 11 5.12 11 -1 11 C-0.67 7.37 -0.34 3.74 0 0 Z " fill="#0A0801" transform="translate(206,283)"/>
<path d="M0 0 C2.45873768 0.14058476 4.91685175 0.28722999 7.375 0.4375 C8.07367188 0.47681641 8.77234375 0.51613281 9.4921875 0.55664062 C14.7734375 0.88671875 14.7734375 0.88671875 17 2 C17 4.97 17 7.94 17 11 C11.39 11 5.78 11 0 11 C0 7.37 0 3.74 0 0 Z " fill="#131002" transform="translate(205,322)"/>
<path d="M0 0 C1.12329712 0.07069702 1.12329712 0.07069702 2.26928711 0.14282227 C3.07817383 0.19116211 3.88706055 0.23950195 4.72045898 0.28930664 C5.99566406 0.37341797 5.99566406 0.37341797 7.29663086 0.45922852 C8.57763672 0.53753906 8.57763672 0.53753906 9.88452148 0.61743164 C12.00135081 0.74751612 14.1177833 0.88402822 16.23413086 1.02172852 C16.23413086 3.66172852 16.23413086 6.30172852 16.23413086 9.02172852 C12.42314024 11.60398664 9.45341077 10.91705327 5.04663086 10.20922852 C3.79495117 10.0171582 2.54327148 9.82508789 1.25366211 9.62719727 C-1.76586914 9.02172852 -1.76586914 9.02172852 -2.76586914 8.02172852 C-2.89086914 4.52172852 -2.89086914 4.52172852 -2.76586914 1.02172852 C-1.76586914 0.02172852 -1.76586914 0.02172852 0 0 Z " fill="#100D01" transform="translate(133.765869140625,296.978271484375)"/>
<path d="M0 0 C3.83331607 -0.02980449 7.6666013 -0.04706053 11.5 -0.0625 C13.08748047 -0.07506836 13.08748047 -0.07506836 14.70703125 -0.08789062 C21.3535389 -0.10779035 27.93059553 0.14912539 34.56103516 0.60665894 C43.53073645 1.20363897 52.5144837 1.35816999 61.5 1.5625 C63.30599632 1.60584002 65.11198598 1.64945829 66.91796875 1.69335938 C71.27857608 1.79876813 75.63925502 1.90045569 80 2 C80 2.33 80 2.66 80 3 C76.37 3.33 72.74 3.66 69 4 C69 4.66 69 5.32 69 6 C48.65819692 5.50548732 28.32411281 5.00976036 8 4 C8 3.67 8 3.34 8 3 C12.95 2.67 17.9 2.34 23 2 C11.615 1.505 11.615 1.505 0 1 C0 0.67 0 0.34 0 0 Z " fill="#423708" transform="translate(187,160)"/>
<path d="M0 0 C0.66 0 1.32 0 2 0 C2 15.51 2 31.02 2 47 C1.01 47 0.02 47 -1 47 C-3.07443144 44.92556856 -2.16411652 40.4763774 -2.16796875 37.6171875 C-2.17296135 36.34574387 -2.17296135 36.34574387 -2.17805481 35.0486145 C-2.18313045 33.24790999 -2.18546294 31.44719603 -2.18530273 29.64648438 C-2.18747432 26.90739055 -2.20558153 24.16870917 -2.22460938 21.4296875 C-2.22754625 19.67968887 -2.22952908 17.92968834 -2.23046875 16.1796875 C-2.23765427 15.36587616 -2.24483978 14.55206482 -2.25224304 13.71359253 C-2.23264471 8.76371508 -1.58174362 4.6962544 0 0 Z " fill="#392F06" transform="translate(197,231)"/>
<path d="M0 0 C1.57901712 2.36852569 2.86389306 4.60406826 4.13671875 7.1328125 C4.75099731 8.33490356 4.75099731 8.33490356 5.37768555 9.5612793 C6.26162113 11.29142051 7.14457363 13.02206429 8.02661133 14.75317383 C10.37270349 19.25377974 12.62628907 23.01859116 16.1875 26.6875 C19.22396138 30.16382261 19.29271479 32.882415 19.11254883 37.3137207 C18.85936787 40.56623088 18.47138182 43.77162872 18 47 C17.67 47 17.34 47 17 47 C17 43.04 17 39.08 17 35 C16.34 34.67 15.68 34.34 15 34 C12.81365679 31.1312949 10.93667017 28.04091193 9 25 C8.3296875 23.95328125 7.659375 22.9065625 6.96875 21.828125 C-3 5.98227612 -3 5.98227612 -3 1 C-2.01 0.67 -1.02 0.34 0 0 Z " fill="#302805" transform="translate(131,197)"/>
<path d="M0 0 C0.33 0 0.66 0 1 0 C1.04934926 5.65998046 1.08569529 11.31983636 1.10986328 16.97998047 C1.11993582 18.90643494 1.13359443 20.83287408 1.15087891 22.75927734 C1.17507241 25.52445252 1.18647036 28.289426 1.1953125 31.0546875 C1.20563507 31.9193161 1.21595764 32.7839447 1.22659302 33.67477417 C1.22699106 35.78453521 1.12265243 37.89380718 1 40 C0.34 40.66 -0.32 41.32 -1 42 C-3.51648985 35.33653024 -3.33067533 29.16975802 -3.3125 22.125 C-3.32861328 20.88363281 -3.34472656 19.64226562 -3.36132812 18.36328125 C-3.36497247 11.51920199 -2.9487803 6.20877751 0 0 Z " fill="#312905" transform="translate(136,253)"/>
<path d="M0 0 C5.00147937 -0.07319238 9.99860134 -0.0563616 15 0 C16.02818848 0.01111816 17.05637695 0.02223633 18.11572266 0.03369141 C21.49471641 0.08257645 24.87179079 0.162919 28.25 0.25 C29.35722412 0.26409912 30.46444824 0.27819824 31.60522461 0.29272461 C33.1696228 0.3411853 33.1696228 0.3411853 34.765625 0.390625 C36.16989746 0.4220459 36.16989746 0.4220459 37.60253906 0.45410156 C40 1 40 1 41.82714844 2.91308594 C43 5 43 5 43 7 C42.34 7 41.68 7 41 7 C40.67 7.66 40.34 8.32 40 9 C39.71125 8.360625 39.4225 7.72125 39.125 7.0625 C38.17176549 4.84793921 38.17176549 4.84793921 36 4 C33.51900266 3.91350549 31.06655072 3.88434946 28.5859375 3.90234375 C27.49147812 3.90446617 27.49147812 3.90446617 26.37490845 3.90663147 C24.04156415 3.91223469 21.70831536 3.92478765 19.375 3.9375 C17.79427222 3.94251459 16.21354293 3.94707757 14.6328125 3.95117188 C10.75517146 3.96220516 6.87760193 3.97947189 3 4 C3.33 3.34 3.66 2.68 4 2 C2.68 1.34 1.36 0.68 0 0 Z " fill="#2A2305" transform="translate(244,234)"/>
<path d="M0 0 C-1.37173943 3.34536452 -2.53365534 4.54176057 -5.75 6.125 C-10.96809557 9.24255072 -13.74545376 13.40683998 -16 19 C-16.7021709 22.68290962 -16.98575654 26.25397029 -17 30 C-18.65 29.67 -20.3 29.34 -22 29 C-20.17953239 18.73918254 -16.00369264 9.80739508 -9 2 C-5.5647952 -0.29013653 -4.014669 -0.17842973 0 0 Z " fill="#292204" transform="translate(342,284)"/>
<path d="M0 0 C-0.99 0.33 -1.98 0.66 -3 1 C-3 1.99 -3 2.98 -3 4 C-3.886875 4.061875 -4.77375 4.12375 -5.6875 4.1875 C-9.88955523 5.21819279 -11.18741227 6.74215936 -14 10 C-15.79180822 13.36789566 -15.79180822 13.36789566 -17.1875 17 C-17.67605469 18.19625 -18.16460937 19.3925 -18.66796875 20.625 C-19.10753906 21.73875 -19.54710937 22.8525 -20 24 C-20.38800781 24.969375 -20.77601563 25.93875 -21.17578125 26.9375 C-21.44777344 27.618125 -21.71976562 28.29875 -22 29 C-23.65 28.67 -25.3 28.34 -27 28 C-22.6655185 16.56886742 -17.21425458 5.15087377 -5.9296875 -0.46875 C-3.60674522 -1.10826447 -2.25505318 -0.76170685 0 0 Z " fill="#322A06" transform="translate(336,275)"/>
<path d="M0 0 C4.45831982 -0.02891546 8.91661569 -0.04676981 13.375 -0.0625 C14.64601562 -0.07087891 15.91703125 -0.07925781 17.2265625 -0.08789062 C19.04414063 -0.09272461 19.04414063 -0.09272461 20.8984375 -0.09765625 C22.57945557 -0.10551147 22.57945557 -0.10551147 24.29443359 -0.11352539 C27 0 27 0 29 1 C31.71262116 1.2322646 34.40773126 1.41936235 37.125 1.5625 C38.25615234 1.62727539 38.25615234 1.62727539 39.41015625 1.69335938 C41.27321888 1.7994832 43.13658524 1.90025001 45 2 C45 2.33 45 2.66 45 3 C29.99201547 3.66069572 15.02333687 4.16290365 0 4 C0 2.68 0 1.36 0 0 Z " fill="#0F0D01" transform="translate(175,166)"/>
<path d="M0 0 C3.62351253 1.20783751 4.15215236 2.29653142 6.1875 5.4375 C6.71730469 6.24058594 7.24710938 7.04367187 7.79296875 7.87109375 C9 10 9 10 9 12 C2.73 12 -3.54 12 -10 12 C-9.67 10.68 -9.34 9.36 -9 8 C-8.05125 7.71125 -7.1025 7.4225 -6.125 7.125 C-2.71331554 6.26893477 -2.71331554 6.26893477 -1.125 2.875 C-0.75375 1.92625 -0.3825 0.9775 0 0 Z " fill="#131002" transform="translate(241,290)"/>
<path d="M0 0 C1.90845703 0.15275391 1.90845703 0.15275391 3.85546875 0.30859375 C4.83128906 0.39238281 5.80710938 0.47617188 6.8125 0.5625 C6.8125 2.5425 6.8125 4.5225 6.8125 6.5625 C1.2025 6.5625 -4.4075 6.5625 -10.1875 6.5625 C-11.1875 4.5625 -11.1875 4.5625 -10.9375 2.5 C-10.69 1.860625 -10.4425 1.22125 -10.1875 0.5625 C-6.51762779 -0.66079074 -3.84782178 -0.31771006 0 0 Z " fill="#131102" transform="translate(217.1875,233.4375)"/>
<path d="M0 0 C5.94 0 11.88 0 18 0 C17.67 1.65 17.34 3.3 17 5 C14.54159395 5.02691685 12.08348118 5.04679802 9.625 5.0625 C8.92632812 5.07087891 8.22765625 5.07925781 7.5078125 5.08789062 C2.2265625 5.11328125 2.2265625 5.11328125 0 4 C0 2.68 0 1.36 0 0 Z " fill="#282104" transform="translate(205,296)"/>
<path d="M0 0 C2.31 0.66 4.62 1.32 7 2 C7.02689216 3.47906892 7.04634621 4.95827483 7.0625 6.4375 C7.07410156 7.26121094 7.08570313 8.08492188 7.09765625 8.93359375 C7 11 7 11 6 12 C3.66702567 12.04092937 1.33294775 12.04241723 -1 12 C-1.02687279 10.18757948 -1.04633715 8.37504767 -1.0625 6.5625 C-1.07410156 5.55316406 -1.08570313 4.54382813 -1.09765625 3.50390625 C-1 1 -1 1 0 0 Z " fill="#1A1603" transform="translate(377,289)"/>
<path d="M0 0 C0.33 0.99 0.66 1.98 1 3 C-5.93 9.93 -12.86 16.86 -20 24 C-20.66 23.34 -21.32 22.68 -22 22 C-21.01 21.67 -20.02 21.34 -19 21 C-18.773125 20.154375 -18.54625 19.30875 -18.3125 18.4375 C-15.78677376 11.8225027 -10.07735001 7.37630556 -4 4 C-2.63015802 2.70420353 -1.2848951 1.38007251 0 0 Z " fill="#454141" transform="translate(357,393)"/>
<path d="M0 0 C5.61 0 11.22 0 17 0 C17 1.65 17 3.3 17 5 C11.39 5 5.78 5 0 5 C0 3.35 0 1.7 0 0 Z " fill="#0F0C01" transform="translate(207,227)"/>
<path d="M0 0 C0.99 1.485 0.99 1.485 2 3 C1.67 3.66 1.34 4.32 1 5 C0.34 4.71125 -0.32 4.4225 -1 4.125 C-7.85212275 1.55545397 -13.73764588 0.69740191 -21 1 C-21 0.34 -21 -0.32 -21 -1 C-21.66 -1.33 -22.32 -1.66 -23 -2 C-15.11108537 -4.2855734 -7.31659731 -3.59178414 0 0 Z " fill="#3D372D" transform="translate(265,12)"/>
<path d="M0 0 C5.61 0 11.22 0 17 0 C17 1.65 17 3.3 17 5 C11.39 5 5.78 5 0 5 C0 3.35 0 1.7 0 0 Z " fill="#201B03" transform="translate(205,334)"/>
<path d="M0 0 C5.47482771 1.14058911 8.71937987 3.12733089 13.06640625 6.6015625 C15.54910054 8.39712726 18.0426848 9.2606712 21 10 C20.34 10.66 19.68 11.32 19 12 C19.99 12.66 20.98 13.32 22 14 C14.59125237 13.68473414 9.2371394 10.31674119 4.09375 5.046875 C2.6796507 3.40598619 1.3322493 1.70801192 0 0 Z " fill="#423D37" transform="translate(227,477)"/>
<path d="M0 0 C1.91766739 2.87650108 3.57012029 5.75830316 5.1875 8.8125 C5.73792969 9.82957031 6.28835937 10.84664062 6.85546875 11.89453125 C8.16166107 15.4386367 7.9337859 17.38900133 7 21 C4.20356382 17.57544124 2.25995711 13.81870229 0.3125 9.875 C-0.16799805 8.92560547 -0.16799805 8.92560547 -0.65820312 7.95703125 C-3 3.25346482 -3 3.25346482 -3 1 C-2.01 0.67 -1.02 0.34 0 0 Z " fill="#2C2505" transform="translate(131,197)"/>
<path d="M0 0 C5.61 0 11.22 0 17 0 C17 1.65 17 3.3 17 5 C11.39 4.67 5.78 4.34 0 4 C0 2.68 0 1.36 0 0 Z " fill="#1E1903" transform="translate(205,317)"/>
<path d="M0 0 C0 0.66 0 1.32 0 2 C-0.83144531 2.36351562 -0.83144531 2.36351562 -1.6796875 2.734375 C-2.40414062 3.06953125 -3.12859375 3.4046875 -3.875 3.75 C-4.59429687 4.07484375 -5.31359375 4.3996875 -6.0546875 4.734375 C-8.37728945 6.24546542 -9.07121984 7.41339719 -10 10 C-9.68097423 13.34977063 -9.40820361 14.59179639 -7 17 C-4.34462628 17.56520003 -1.70855287 17.73788198 1 18 C1 18.33 1 18.66 1 19 C-2.02453832 19.65273156 -4.90003914 20.10137566 -8 20 C-10.89197925 17.88391763 -11.76676661 16.36011893 -12.37109375 12.8359375 C-12.59565822 8.76655706 -12.32739156 6.54188948 -10.1875 3 C-6.89807086 -0.00747807 -4.2899777 -0.11594534 0 0 Z " fill="#372E06" transform="translate(178,304)"/>
<path d="M0 0 C0 0.33 0 0.66 0 1 C-1.98 1.33 -3.96 1.66 -6 2 C-5.34 2.66 -4.68 3.32 -4 4 C-4.804375 4.2475 -5.60875 4.495 -6.4375 4.75 C-9.09489795 5.71913526 -9.09489795 5.71913526 -9.875 7.8125 C-10.02102312 10.36790466 -9.61897551 12.52409795 -9 15 C-7.35 15.33 -5.7 15.66 -4 16 C-3.67 16.99 -3.34 17.98 -3 19 C-6.7652358 18.74327938 -8.55839511 18.40674134 -11.375 15.8125 C-13.3064624 12.46958431 -13.55458833 10.80289143 -13 7 C-9.94995719 0.60943411 -6.86275645 -0.25897194 0 0 Z " fill="#332B06" transform="translate(353,300)"/>
<path d="M0 0 C0 0.99 0 1.98 0 3 C-1.7578125 4.4296875 -1.7578125 4.4296875 -4.125 5.875 C-8.03588125 8.34633097 -11.51582342 10.96251272 -15 14 C-13.85831338 7.83489224 -10.72077348 4.48378385 -5.81640625 0.91796875 C-4 0 -4 0 0 0 Z " fill="#3D372D" transform="translate(244,11)"/>
<path d="M0 0 C0 0.99 0 1.98 0 3 C-5.61 3 -11.22 3 -17 3 C-17 2.01 -17 1.02 -17 0 C-12.2418865 -2.37905675 -5.00367323 -1.33431286 0 0 Z " fill="#201A03" transform="translate(223,279)"/>
<path d="M0 0 C0.99 0.33 1.98 0.66 3 1 C-1.62 5.62 -6.24 10.24 -11 15 C-11.66 13.68 -12.32 12.36 -13 11 C-9.26448742 7.07071443 -5.84216746 3.56350042 -1 1 C-0.67 0.67 -0.34 0.34 0 0 Z " fill="#3F3A38" transform="translate(426,324)"/>
<path d="M0 0 C-0.33 0.99 -0.66 1.98 -1 3 C-13.54 3 -26.08 3 -39 3 C-39 2.67 -39 2.34 -39 2 C-37.92685547 1.96241577 -37.92685547 1.96241577 -36.83203125 1.92407227 C-33.5545453 1.80720848 -30.27728384 1.68489577 -27 1.5625 C-25.87464844 1.52318359 -24.74929688 1.48386719 -23.58984375 1.44335938 C-15.72483374 1.14439701 -7.84801181 -0.1962003 0 0 Z " fill="#403607" transform="translate(311,308)"/>
<path d="M0 0 C0.99 0.33 1.98 0.66 3 1 C-1.62 5.62 -6.24 10.24 -11 15 C-12 11 -12 11 -10.9609375 9.18359375 C-7.87917569 5.79061954 -5.13338431 3.1257405 -1 1 C-0.67 0.67 -0.34 0.34 0 0 Z " fill="#403C39" transform="translate(464,286)"/>
<path d="M0 0 C0.99 0 1.98 0 3 0 C3.99 1.98 4.98 3.96 6 6 C5.34 6.66 4.68 7.32 4 8 C3.53709779 10.66242821 3.53709779 10.66242821 3.375 13.625 C3.30023438 14.62789063 3.22546875 15.63078125 3.1484375 16.6640625 C3.09945313 17.43492187 3.05046875 18.20578125 3 19 C2.67 19 2.34 19 2 19 C1.87625 18.0925 1.7525 17.185 1.625 16.25 C1.19985817 13.12462298 1.19985817 13.12462298 -0.0625 11.09375 C-1.2139221 8.52224065 -1.03149698 7.01417946 -0.625 4.25 C-0.51414062 3.45078125 -0.40328125 2.6515625 -0.2890625 1.828125 C-0.19367188 1.22484375 -0.09828125 0.6215625 0 0 Z " fill="#292204" transform="translate(293,255)"/>
<path d="M0 0 C5.61 0.33 11.22 0.66 17 1 C17 1.99 17 2.98 17 4 C11.39 4 5.78 4 0 4 C0 2.68 0 1.36 0 0 Z " fill="#201B03" transform="translate(207,241)"/>
<path d="M0 0 C2.77141717 -0.08089542 5.54047819 -0.14044062 8.3125 -0.1875 C9.09818359 -0.21263672 9.88386719 -0.23777344 10.69335938 -0.26367188 C11.45068359 -0.27333984 12.20800781 -0.28300781 12.98828125 -0.29296875 C14.03302612 -0.31653442 14.03302612 -0.31653442 15.09887695 -0.34057617 C17.54489783 0.09761557 18.42702086 1.13437358 20 3 C17.44276771 4.27861615 15.63262898 4.11336609 12.7734375 4.09765625 C11.7421875 4.09443359 10.7109375 4.09121094 9.6484375 4.08789062 C8.02808594 4.07532227 8.02808594 4.07532227 6.375 4.0625 C4.74304688 4.05573242 4.74304688 4.05573242 3.078125 4.04882812 C0.38536211 4.03701776 -2.30729188 4.02054778 -5 4 C-5 3.34 -5 2.68 -5 2 C-3.35 1.67 -1.7 1.34 0 1 C0 0.67 0 0.34 0 0 Z " fill="#3C3207" transform="translate(350,274)"/>
<path d="M0 0 C5.94 0 11.88 0 18 0 C17.67 1.32 17.34 2.64 17 4 C11.39 3.67 5.78 3.34 0 3 C0 2.01 0 1.02 0 0 Z " fill="#201B03" transform="translate(206,262)"/>
<path d="M0 0 C2.375 -0.125 2.375 -0.125 5 0 C5.66 0.66 6.32 1.32 7 2 C6.44444444 6.55555556 6.44444444 6.55555556 5 8 C2.5 8.125 2.5 8.125 0 8 C-0.33 7.67 -0.66 7.34 -1 7 C-0.71269945 4.66055264 -0.38063221 2.3260857 0 0 Z " fill="#201A03" transform="translate(283,254)"/>
<path d="M0 0 C0.66 0 1.32 0 2 0 C0.34136495 4.32504836 -2.871041 7.09418825 -6.125 10.25 C-6.68832031 10.80429687 -7.25164062 11.35859375 -7.83203125 11.9296875 C-9.21686028 13.29104485 -10.60783204 14.64614859 -12 16 C-12.59765625 14.1640625 -12.59765625 14.1640625 -13 12 C-10.30991284 7.48065357 -7.83512799 6.57667217 -3 5 C-1.63979849 3.03241727 -1.63979849 3.03241727 -1 1 C-0.67 0.67 -0.34 0.34 0 0 Z " fill="#403C3A" transform="translate(386,364)"/>
<path d="M0 0 C-0.47939368 4.71403788 -0.96834048 8.66579301 -3 13 C-4.65 12.67 -6.3 12.34 -8 12 C-3.41176471 0 -3.41176471 0 0 0 Z " fill="#251F04" transform="translate(317,291)"/>
<path d="M0 0 C0.99 0.33 1.98 0.66 3 1 C-2.28 6.28 -7.56 11.56 -13 17 C-13.33 16.01 -13.66 15.02 -14 14 C-9.38 9.38 -4.76 4.76 0 0 Z " fill="#4D494A" transform="translate(443,307)"/>
<path d="M0 0 C0.66 0.33 1.32 0.66 2 1 C1.38125 1.7425 0.7625 2.485 0.125 3.25 C-1.60437281 5.48801188 -2.86106661 7.43739987 -4 10 C-4.99 10 -5.98 10 -7 10 C-9.35666976 11.99157649 -9.35666976 11.99157649 -11.6875 14.5 C-12.49574219 15.3353125 -13.30398438 16.170625 -14.13671875 17.03125 C-14.75160156 17.6809375 -15.36648438 18.330625 -16 19 C-16.66 18.67 -17.32 18.34 -18 18 C-12.06 12.06 -6.12 6.12 0 0 Z " fill="#322D27" transform="translate(338,410)"/>
<path d="M0 0 C3 2 3 2 3.6875 5.125 C3.790625 6.07375 3.89375 7.0225 4 8 C3.01 8 2.02 8 1 8 C0.608125 7.54625 0.21625 7.0925 -0.1875 6.625 C-3.05151655 4.05726102 -6.27215642 3.79445847 -10 3 C-7.29586623 -0.81760062 -4.39233505 -0.39217277 0 0 Z " fill="#312905" transform="translate(369,279)"/>
<path d="M0 0 C2.39829117 0.54019762 4.65807395 1.23528945 7 2 C4.08487597 3.64017229 1.76309069 4.29802832 -1.5625 4.5625 C-4.32084619 4.79042405 -6.34052665 5.11350888 -9 6 C-9.33 4.68 -9.66 3.36 -10 2 C-6.25405125 -0.49729916 -4.44844343 -0.2965629 0 0 Z " fill="#4A3D09" transform="translate(350,281)"/>
<path d="M0 0 C0 3.34238213 -0.48151073 5.03533048 -2 8 C-5.17449034 11.0886933 -7.59124045 12.49614177 -12 13 C-8.19524578 8.43969176 -4.25030379 4.14910608 0 0 Z " fill="#46423F" transform="translate(230,19)"/>
<path d="M0 0 C1.32 0.33 2.64 0.66 4 1 C3.5020163 4.73487777 3.12508244 6.81237635 1 10 C0.01 9.67 -0.98 9.34 -2 9 C-1.34 6.03 -0.68 3.06 0 0 Z " fill="#2C2505" transform="translate(146,310)"/>
<path d="M0 0 C0.99 0 1.98 0 3 0 C2.6875 1.875 2.6875 1.875 2 4 C-1.31371 6.20914 -2.3446021 6.22481553 -6.1875 6.125 C-7.08855469 6.10695313 -7.98960937 6.08890625 -8.91796875 6.0703125 C-9.60503906 6.04710937 -10.29210937 6.02390625 -11 6 C-11 5.34 -11 4.68 -11 4 C-9.741875 3.896875 -8.48375 3.79375 -7.1875 3.6875 C-3.73256737 3.2738813 -2.25903031 2.73461564 0 0 Z " fill="#241E04" transform="translate(182,319)"/>
<path d="M0 0 C0.33 0.99 0.66 1.98 1 3 C-2.63 6.63 -6.26 10.26 -10 14 C-10.33 13.01 -10.66 12.02 -11 11 C-7.37 7.37 -3.74 3.74 0 0 Z " fill="#484546" transform="translate(332,418)"/>
<path d="M0 0 C0.98484375 0.00902344 1.9696875 0.01804687 2.984375 0.02734375 C4.10585937 0.04474609 4.10585937 0.04474609 5.25 0.0625 C0.55968888 3.18937408 -2.00698366 4.3235462 -7.75 4.0625 C-7.75 3.4025 -7.75 2.7425 -7.75 2.0625 C-8.41 1.7325 -9.07 1.4025 -9.75 1.0625 C-6.43929162 0.06140485 -3.44915231 -0.04106134 0 0 Z " fill="#5C574D" transform="translate(251.75,8.9375)"/>
<path d="M0 0 C-0.1875 1.875 -0.1875 1.875 -1 4 C-2.65697379 4.69040574 -4.3255761 5.3530635 -6 6 C-8.77152212 8.52056045 -8.77152212 8.52056045 -11 11 C-11.66 10.67 -12.32 10.34 -13 10 C-11.40517782 8.32438946 -9.79883156 6.65974066 -8.1875 5 C-7.29417969 4.071875 -6.40085937 3.14375 -5.48046875 2.1875 C-3 0 -3 0 0 0 Z " fill="#342F2A" transform="translate(391,360)"/>
<path d="M0 0 C0.33 0.99 0.66 1.98 1 3 C-1.97 5.97 -4.94 8.94 -8 12 C-8.33 10.68 -8.66 9.36 -9 8 C-7.88625 7.13375 -7.88625 7.13375 -6.75 6.25 C-4.33912357 4.27746474 -2.15957299 2.23955718 0 0 Z " fill="#474444" transform="translate(357,393)"/>
<path d="M0 0 C1.20731543 2.28805748 2.01167005 4.06126775 2.5 6.625 C2.81108239 9.17526091 2.81108239 9.17526091 5 11 C7.65537372 11.56520003 10.29144713 11.73788198 13 12 C13 12.33 13 12.66 13 13 C9.97546168 13.65273156 7.09996086 14.10137566 4 14 C1.4375 12.125 1.4375 12.125 0 9 C-0.29878749 5.96654733 -0.23809712 3.03573825 0 0 Z " fill="#453A08" transform="translate(166,310)"/>
<path d="M0 0 C0.33 0.99 0.66 1.98 1 3 C-0.375 4.5 -0.375 4.5 -2 6 C-2.66 6 -3.32 6 -4 6 C-5.70680947 7.62553283 -7.37660195 9.29115995 -9 11 C-9.66 10.67 -10.32 10.34 -11 10 C-9.92492371 8.70145279 -8.83956264 7.41141639 -7.75 6.125 C-7.14671875 5.40570313 -6.5434375 4.68640625 -5.921875 3.9453125 C-4.02912366 2.02947882 -2.46342273 1.03550955 0 0 Z " fill="#261F04" transform="translate(296,200)"/>
<path d="M0 0 C3.96 0 7.92 0 12 0 C12 0.66 12 1.32 12 2 C3.42857143 3.42857143 3.42857143 3.42857143 0 1 C0 0.67 0 0.34 0 0 Z " fill="#221E22" transform="translate(245,488)"/>
<path d="M0 0 C1.5778125 0.1546875 1.5778125 0.1546875 3.1875 0.3125 C3.1875 0.6425 3.1875 0.9725 3.1875 1.3125 C1.2075 1.6425 -0.7725 1.9725 -2.8125 2.3125 C-2.1525 2.9725 -1.4925 3.6325 -0.8125 4.3125 C-1.59625 4.60125 -2.38 4.89 -3.1875 5.1875 C-5.90921632 6.16162254 -5.90921632 6.16162254 -7.8125 8.3125 C-8.1425 7.3225 -8.4725 6.3325 -8.8125 5.3125 C-5.88314862 1.76177106 -4.6956049 0.38488565 0 0 Z " fill="#4E4209" transform="translate(349.8125,299.6875)"/>
<path d="M0 0 C-0.99 0.33 -1.98 0.66 -3 1 C-3 1.99 -3 2.98 -3 4 C-6.375 4.625 -6.375 4.625 -10 5 C-10.66 4.34 -11.32 3.68 -12 3 C-10.75823305 2.29773859 -9.50614401 1.61370891 -8.25 0.9375 C-7.20585937 0.36322266 -7.20585937 0.36322266 -6.140625 -0.22265625 C-3.63859372 -1.1312406 -2.4667645 -0.88336837 0 0 Z " fill="#463A08" transform="translate(336,275)"/>
<path d="M0 0 C1.32 0.33 2.64 0.66 4 1 C4.625 3.875 4.625 3.875 5 7 C4.34 7.66 3.68 8.32 3 9 C0 3.375 0 3.375 0 0 Z " fill="#1D1803" transform="translate(134,209)"/>
<path d="M0 0 C2.31 0.33 4.62 0.66 7 1 C6.34 1.66 5.68 2.32 5 3 C5.99 3.66 6.98 4.32 8 5 C1.25 4.125 1.25 4.125 -1 3 C-0.67 2.01 -0.34 1.02 0 0 Z " fill="#49433B" transform="translate(241,486)"/>
<path d="M0 0 C3.36720387 1.39332574 4.9859524 2.9789286 7 6 C4.125 5.75 4.125 5.75 1 5 C-0.375 2.9375 -0.375 2.9375 -1 1 C-0.67 0.67 -0.34 0.34 0 0 Z " fill="#36312C" transform="translate(225,472)"/>
<path d="M0 0 C-1.5830577 4.2742558 -4.50568404 6.26531794 -8 9 C-7.53918323 4.85264908 -4.48412936 0 0 0 Z " fill="#484546" transform="translate(312,440)"/>
<path d="M0 0 C-0.33 1.32 -0.66 2.64 -1 4 C-2.65 3.67 -4.3 3.34 -6 3 C-6 2.01 -6 1.02 -6 0 C-3.50907189 -1.24546405 -2.58919267 -0.7767578 0 0 Z " fill="#2B2405" transform="translate(290,264)"/>
<path d="M0 0 C0.66 0 1.32 0 2 0 C0.4169423 4.2742558 -2.50568404 6.26531794 -6 9 C-5.67 7.68 -5.34 6.36 -5 5 C-4.34 5 -3.68 5 -3 5 C-2.5359375 4.0409375 -2.5359375 4.0409375 -2.0625 3.0625 C-1 1 -1 1 0 0 Z " fill="#4D4A4A" transform="translate(386,364)"/>
<path d="M0 0 C0.66 0 1.32 0 2 0 C2.75 1.5625 2.75 1.5625 3 4 C1.86915563 6.50286409 0.47860484 8.67007722 -1 11 C-2.47078962 7.17594698 -1.40747774 4.72567636 0 1 C0 0.67 0 0.34 0 0 Z " fill="#392F06" transform="translate(316,304)"/>
<path d="M0 0 C0 0.99 0 1.98 0 3 C-0.66 3.66 -1.32 4.32 -2 5 C-2.69748583 6.31747324 -3.36959957 7.64914193 -4 9 C-5.32 8.67 -6.64 8.34 -8 8 C-5.36 5.36 -2.72 2.72 0 0 Z " fill="#312B25" transform="translate(307,441)"/>
<path d="M0 0 C0.33 0.99 0.66 1.98 1 3 C-0.375 4.5 -0.375 4.5 -2 6 C-2.66 6 -3.32 6 -4 6 C-4.99 6.66 -5.98 7.32 -7 8 C-3.875 1.75 -3.875 1.75 0 0 Z " fill="#241E04" transform="translate(286,212)"/>
<path d="M0 0 C1.32 0.99 2.64 1.98 4 3 C3.67 3.66 3.34 4.32 3 5 C2.34 4.67 1.68 4.34 1 4 C1 7.3 1 10.6 1 14 C0.67 14 0.34 14 0 14 C0 9.38 0 4.76 0 0 Z " fill="#2F2705" transform="translate(275,168)"/>
<path d="M0 0 C0.66 0.33 1.32 0.66 2 1 C1.34 2.65 0.68 4.3 0 6 C-1.65 6 -3.3 6 -5 6 C-3.35 4.02 -1.7 2.04 0 0 Z " fill="#37322D" transform="translate(313,435)"/>
<path d="M0 0 C0.66 0.33 1.32 0.66 2 1 C1.34 2.65 0.68 4.3 0 6 C-1.65 6 -3.3 6 -5 6 C-3.35 4.02 -1.7 2.04 0 0 Z " fill="#36312D" transform="translate(347,401)"/>
<path d="M0 0 C1.98 0.99 1.98 0.99 4 2 C3.67 3.98 3.34 5.96 3 8 C0.37613513 4.93882432 0 4.26826873 0 0 Z " fill="#322D28" transform="translate(488,241)"/>
<path d="M0 0 C0.33 0.99 0.66 1.98 1 3 C-1.97 5.475 -1.97 5.475 -5 8 C-4.45773019 4.20411134 -2.79872437 2.52788007 0 0 Z " fill="#474344" transform="translate(294,456)"/>
<path d="M0 0 C0.99 0.33 1.98 0.66 3 1 C-0.465 3.97 -0.465 3.97 -4 7 C-3.04065919 3.16263678 -2.76390737 2.40339772 0 0 Z " fill="#514E4F" transform="translate(426,324)"/>
<path d="M0 0 C0.99 0.33 1.98 0.66 3 1 C-0.465 3.97 -0.465 3.97 -4 7 C-3.04065919 3.16263678 -2.76390737 2.40339772 0 0 Z " fill="#545152" transform="translate(464,286)"/>
<path d="M0 0 C0.99 0 1.98 0 3 0 C2.67 1.32 2.34 2.64 2 4 C-1.63 3.67 -5.26 3.34 -9 3 C-9 2.67 -9 2.34 -9 2 C-4.545 1.505 -4.545 1.505 0 1 C0 0.67 0 0.34 0 0 Z " fill="#4D4009" transform="translate(256,269)"/>
<path d="M0 0 C-1.39332574 3.36720387 -2.9789286 4.9859524 -6 7 C-5.37162381 3.35541809 -4.14650034 0 0 0 Z " fill="#2A241F" transform="translate(235,18)"/>
<path d="M0 0 C0.99 0.33 1.98 0.66 3 1 C2.34 2.32 1.68 3.64 1 5 C-0.65 5 -2.3 5 -4 5 C-2.68 3.35 -1.36 1.7 0 0 Z " fill="#464241" transform="translate(235,14)"/>
</svg>
