<?xml version="1.0" standalone="no"?>
<!DOCTYPE svg PUBLIC "-//W3C//DTD SVG 20010904//EN"
 "http://www.w3.org/TR/2001/REC-SVG-20010904/DTD/svg10.dtd">
<svg version="1.0" xmlns="http://www.w3.org/2000/svg"
 width="500.000000pt" height="500.000000pt" viewBox="0 0 500.000000 500.000000"
 preserveAspectRatio="xMidYMid meet">

<g transform="translate(0.000000,500.000000) scale(0.100000,-0.100000)"
fill="#000000" stroke="none">
<path d="M2219 4986 c-791 -91 -1494 -552 -1890 -1241 -167 -291 -273 -612
-315 -955 -20 -161 -14 -482 10 -649 63 -419 225 -806 479 -1144 102 -136 309
-350 432 -447 486 -384 1091 -578 1690 -542 643 40 1185 282 1636 732 155 154
257 282 362 452 358 579 462 1269 292 1934 -57 223 -158 465 -277 664 -88 148
-245 347 -377 479 -381 381 -860 622 -1401 706 -143 22 -490 28 -641 11z m710
-933 c60 -20 120 -62 165 -115 106 -123 102 -323 -9 -446 -150 -167 -420 -170
-576 -5 -73 77 -94 129 -94 233 0 105 21 156 96 235 107 113 265 150 418 98z
m-275 -1046 c163 -60 252 -173 263 -336 9 -134 -12 -244 -117 -620 -108 -383
-135 -512 -127 -601 11 -125 55 -155 222 -154 87 0 123 5 169 22 33 12 61 20
63 18 6 -6 -34 -157 -44 -166 -14 -14 -282 -111 -361 -131 -55 -14 -109 -19
-201 -19 -197 0 -297 36 -395 139 -68 74 -89 126 -94 241 -7 137 11 230 105
565 123 437 136 496 137 600 1 108 -17 149 -79 180 -60 30 -194 26 -298 -8
-67 -22 -77 -23 -73 -9 3 10 13 48 22 85 17 67 18 69 63 89 91 39 308 109 381
123 111 21 277 13 364 -18z"/>
</g>
</svg>
