<?xml version="1.0" standalone="no"?>
<!DOCTYPE svg PUBLIC "-//W3C//DTD SVG 20010904//EN"
 "http://www.w3.org/TR/2001/REC-SVG-20010904/DTD/svg10.dtd">
<svg version="1.0" xmlns="http://www.w3.org/2000/svg"
 width="500.000000pt" height="500.000000pt" viewBox="0 0 500.000000 500.000000"
 preserveAspectRatio="xMidYMid meet">

<g transform="translate(0.000000,500.000000) scale(0.100000,-0.100000)"
fill="#000000" stroke="none">
<path d="M2285 4039 c-144 -21 -377 -111 -504 -194 l-36 -24 -94 35 c-148 56
-247 75 -423 81 -124 4 -177 2 -255 -12 -231 -41 -401 -143 -506 -303 -96
-148 -121 -254 -115 -495 5 -150 9 -184 32 -262 68 -226 201 -392 397 -498 35
-19 87 -42 114 -51 l50 -16 -3 -130 c-2 -71 1 -168 7 -215 58 -431 368 -712
911 -824 69 -14 121 -33 190 -69 113 -60 201 -87 330 -103 207 -25 433 19 593
115 40 25 85 40 164 55 629 127 948 491 920 1052 l-6 117 73 26 c258 94 446
326 508 626 27 127 21 357 -11 468 -68 234 -218 392 -449 471 -233 80 -594 64
-841 -38 l-75 -30 -55 33 c-153 92 -311 153 -470 180 -102 17 -341 20 -446 5z
m-834 -438 l27 -6 -69 -85 c-195 -239 -359 -599 -419 -920 -12 -63 -25 -131
-29 -150 l-7 -35 -61 62 c-140 144 -212 383 -184 609 31 254 155 412 385 489
107 36 284 54 357 36z m2402 -21 c169 -42 303 -144 371 -281 47 -96 66 -188
66 -324 0 -206 -59 -369 -181 -498 -64 -68 -67 -71 -72 -47 -3 14 -17 85 -32
158 -70 365 -240 727 -454 967 l-35 40 29 7 c48 11 224 -1 308 -22z m-1940
-1014 c67 -27 114 -113 104 -188 -16 -122 -154 -190 -262 -129 -101 56 -123
183 -47 273 47 55 134 74 205 44z m1327 -6 c107 -54 127 -195 41 -281 -51 -51
-105 -65 -175 -45 -58 17 -88 43 -111 98 -64 155 96 304 245 228z m-615 -54
c73 -37 164 -135 213 -231 75 -150 103 -278 103 -466 0 -192 -37 -305 -128
-390 -86 -81 -205 -116 -357 -106 -189 12 -316 102 -369 261 -61 182 -37 469
57 670 66 141 170 247 277 282 59 19 139 11 204 -20z"/>
</g>
</svg>
