<?xml version="1.0" standalone="no"?>
<!DOCTYPE svg PUBLIC "-//W3C//DTD SVG 20010904//EN"
 "http://www.w3.org/TR/2001/REC-SVG-20010904/DTD/svg10.dtd">
<svg version="1.0" xmlns="http://www.w3.org/2000/svg"
 width="500.000000pt" height="500.000000pt" viewBox="0 0 500.000000 500.000000"
 preserveAspectRatio="xMidYMid meet">

<g transform="translate(0.000000,500.000000) scale(0.100000,-0.100000)"
fill="#000000" stroke="none">
<path d="M1525 3669 c-116 -11 -247 -39 -252 -55 -2 -7 45 -15 134 -23 232
-20 346 -51 398 -107 l26 -28 -22 -17 c-20 -15 -22 -20 -11 -44 9 -19 9 -32 1
-47 l-11 -20 -22 21 c-33 31 -44 26 -69 -26 -20 -43 -26 -48 -59 -51 -30 -3
-40 1 -54 22 -9 14 -21 26 -28 26 -6 -1 -26 -21 -44 -45 -37 -52 -47 -55 -56
-20 -8 33 -26 32 -61 -5 -23 -24 -31 -27 -43 -18 -12 10 -20 6 -46 -23 -49
-56 -77 -71 -124 -63 -35 5 -44 3 -66 -19 -14 -15 -26 -33 -26 -40 0 -28 -70
-52 -150 -52 -70 0 -75 -1 -78 -22 -5 -35 -48 -63 -98 -63 -58 0 -92 -14 -96
-41 -2 -17 -18 -29 -68 -49 l-65 -27 0 -45 c0 -38 -6 -51 -37 -86 -43 -48 -48
-74 -17 -96 19 -13 20 -18 9 -51 -16 -49 -6 -116 26 -183 l26 -53 -27 -82
c-14 -45 -29 -108 -32 -139 -5 -52 -2 -65 32 -135 20 -43 47 -89 60 -103 57
-61 71 -78 88 -103 21 -32 33 -34 40 -8 7 26 56 58 66 43 10 -16 79 -51 86
-44 3 3 5 18 5 34 0 28 16 37 35 19 6 -4 27 -11 49 -14 38 -6 38 -6 34 23 -4
26 -1 30 19 30 13 0 23 4 23 9 0 26 -47 84 -81 101 -21 11 -41 25 -45 31 -3 6
-25 23 -48 38 -40 25 -42 28 -34 59 6 22 13 30 21 25 7 -4 44 -29 84 -56 39
-26 75 -47 80 -47 5 0 41 -20 81 -45 62 -38 190 -95 271 -120 13 -4 83 -17
155 -29 l130 -22 12 -47 c17 -66 33 -87 115 -152 39 -32 73 -63 76 -71 3 -9
-12 -30 -38 -53 -44 -39 -49 -63 -11 -42 12 6 29 11 38 11 15 0 15 -3 -4 -23
-26 -28 -28 -42 -4 -32 9 4 37 11 62 15 25 5 53 11 63 15 13 6 20 0 28 -23 6
-17 21 -38 34 -46 29 -19 35 -20 35 -3 0 7 6 21 13 31 13 18 15 17 54 -2 41
-19 41 -19 47 1 3 11 2 33 -1 48 -6 32 -5 33 29 20 13 -4 35 -11 49 -14 26 -7
26 -6 15 28 -14 39 -43 75 -61 75 -8 0 -14 24 -18 63 -3 34 -9 72 -13 85 -6
22 -6 22 102 22 68 0 124 -6 149 -14 40 -15 79 -12 103 7 9 7 23 4 46 -8 31
-17 35 -17 65 -2 25 12 38 13 61 5 24 -8 36 -7 55 6 19 12 30 14 44 6 11 -5
31 -10 45 -10 14 0 26 -4 26 -8 0 -7 85 -72 94 -72 2 0 9 14 16 30 15 35 15
35 60 11 19 -10 57 -21 84 -25 45 -7 48 -6 41 11 -4 10 -10 31 -13 47 -5 28
-4 29 32 23 40 -6 46 5 21 39 -21 28 -19 32 24 44 41 11 97 49 147 100 l30 32
140 -5 c79 -2 169 -11 208 -21 61 -14 94 -15 275 -6 442 22 511 40 511 133 0
37 -2 39 -25 35 -14 -3 -28 -1 -31 4 -3 5 -12 7 -20 4 -10 -4 -14 2 -14 18 0
57 -28 75 -48 31 -12 -27 -28 -33 -35 -12 -3 9 -10 7 -25 -7 -20 -17 -22 -17
-28 -2 -6 15 -8 15 -30 1 -22 -14 -25 -14 -30 0 -5 12 -15 14 -39 9 -30 -5
-34 -3 -37 18 -2 15 -11 24 -25 26 -17 3 -23 10 -23 29 0 22 -2 24 -16 12 -15
-12 -19 -11 -32 9 -14 22 -16 22 -34 5 -16 -14 -21 -15 -28 -4 -7 12 -13 12
-39 1 -17 -7 -38 -9 -48 -4 -10 4 -36 8 -58 9 -57 3 -193 72 -211 107 -8 15
-14 50 -14 78 0 49 1 50 22 39 19 -10 24 -9 36 10 8 11 22 21 32 21 11 0 22
12 28 30 8 21 16 28 26 24 10 -4 18 1 22 10 4 10 13 14 24 11 9 -3 23 1 30 10
9 11 17 12 32 4 16 -8 22 -7 33 8 13 17 15 15 32 -24 10 -24 23 -41 28 -40 6
2 16 21 23 43 23 70 21 68 38 53 13 -10 16 -9 20 8 4 14 12 19 25 16 13 -4 19
0 19 11 0 22 17 20 32 -4 20 -32 38 -24 38 16 0 31 3 35 20 29 16 -5 20 -2 20
15 0 12 4 18 11 15 6 -4 13 2 16 14 6 24 20 26 47 6 24 -18 38 -10 30 19 -8
35 19 53 51 32 35 -23 48 -20 41 9 -5 20 0 31 25 53 56 50 12 97 -99 108 -84
9 -103 2 -178 -66 -58 -53 -76 -63 -152 -85 -48 -14 -114 -34 -147 -45 -76
-25 -112 -25 -215 1 l-83 20 -81 -24 c-45 -14 -108 -27 -141 -30 -75 -6 -114
-23 -121 -54 -4 -15 -16 -25 -33 -29 -74 -15 -102 -27 -126 -56 -26 -31 -27
-31 -55 -15 -32 20 -63 22 -91 6 -16 -8 -25 -7 -40 7 -19 17 -21 16 -50 -5
-25 -19 -39 -22 -72 -17 -35 5 -54 0 -116 -29 l-74 -36 -32 36 c-38 41 -95 68
-128 60 -18 -5 -24 0 -33 24 -9 23 -22 32 -55 42 -24 7 -52 19 -62 27 -10 10
-36 15 -65 14 -43 0 -48 2 -63 31 -13 27 -22 32 -59 35 -23 2 -53 10 -67 19
-16 11 -36 14 -64 10 -32 -4 -45 -1 -60 14 -10 10 -32 19 -48 19 -16 0 -34 6
-40 14 -17 20 -56 28 -87 16 -19 -8 -30 -7 -41 1 -10 9 -27 9 -69 0 -49 -11
-58 -11 -74 4 -17 15 -21 15 -49 1 -18 -10 -41 -14 -55 -10 -14 3 -37 -1 -53
-9 -35 -19 -112 -42 -118 -35 -8 7 48 65 80 82 17 8 64 29 105 45 223 89 341
140 385 165 72 43 133 109 168 184 27 58 32 78 32 147 0 63 -5 89 -22 121 -29
55 -94 110 -152 128 -62 21 -184 26 -306 15z"/>
</g>
</svg>
